<svg xmlns="http://www.w3.org/2000/svg" xmlns:xlink="http://www.w3.org/1999/xlink" viewBox="0 0 399.46 324.23"><defs><style>.cls-1{isolation:isolate;}.cls-2{fill:url(#New_Gradient_Swatch_copy_7);}.cls-102,.cls-103,.cls-104,.cls-105,.cls-106,.cls-108,.cls-3,.cls-72,.cls-80{mix-blend-mode:screen;}.cls-3{fill:url(#Radial_Gradient_1);}.cls-109,.cls-110,.cls-111,.cls-112,.cls-113,.cls-114,.cls-115,.cls-116,.cls-4,.cls-54,.cls-73,.cls-81{mix-blend-mode:color-dodge;}.cls-5{fill:url(#linear-gradient);}.cls-6{fill:url(#linear-gradient-2);}.cls-7{fill:url(#linear-gradient-3);}.cls-8{fill:url(#linear-gradient-4);}.cls-9{fill:url(#linear-gradient-5);}.cls-10{fill:url(#linear-gradient-6);}.cls-11{fill:url(#linear-gradient-7);}.cls-12{fill:url(#linear-gradient-8);}.cls-13{fill:url(#linear-gradient-9);}.cls-14{fill:url(#linear-gradient-10);}.cls-15{fill:url(#linear-gradient-11);}.cls-16{fill:url(#linear-gradient-12);}.cls-17{fill:url(#linear-gradient-13);}.cls-18{fill:url(#linear-gradient-14);}.cls-19{fill:url(#linear-gradient-15);}.cls-20{fill:url(#linear-gradient-16);}.cls-21{fill:url(#linear-gradient-17);}.cls-22{fill:url(#linear-gradient-18);}.cls-23{fill:url(#linear-gradient-19);}.cls-24{fill:url(#linear-gradient-20);}.cls-25{fill:url(#linear-gradient-21);}.cls-26{fill:url(#linear-gradient-22);}.cls-27{fill:url(#linear-gradient-23);}.cls-28{fill:url(#linear-gradient-24);}.cls-29{fill:url(#linear-gradient-25);}.cls-30{fill:url(#linear-gradient-26);}.cls-31{fill:url(#linear-gradient-27);}.cls-32{fill:url(#linear-gradient-28);}.cls-33{fill:url(#linear-gradient-29);}.cls-34{fill:url(#linear-gradient-30);}.cls-35{fill:url(#linear-gradient-31);}.cls-36{fill:url(#linear-gradient-32);}.cls-37{fill:url(#linear-gradient-33);}.cls-38{fill:url(#linear-gradient-34);}.cls-39{fill:url(#linear-gradient-35);}.cls-40{fill:url(#linear-gradient-36);}.cls-41{fill:url(#linear-gradient-37);}.cls-42{fill:url(#linear-gradient-38);}.cls-43{fill:url(#linear-gradient-39);}.cls-44{fill:url(#linear-gradient-40);}.cls-45{fill:url(#linear-gradient-41);}.cls-46{fill:url(#linear-gradient-42);}.cls-47{fill:url(#linear-gradient-43);}.cls-48{fill:url(#linear-gradient-44);}.cls-49{fill:url(#linear-gradient-45);}.cls-50{fill:url(#linear-gradient-46);}.cls-51{fill:url(#linear-gradient-47);}.cls-52{fill:url(#linear-gradient-48);}.cls-53{fill:#6b24d6;}.cls-109,.cls-54{opacity:0.8;}.cls-109,.cls-110,.cls-111,.cls-112,.cls-113,.cls-114,.cls-115,.cls-116,.cls-55{fill:#7c1dc9;}.cls-56,.cls-70{opacity:0.2;}.cls-57{opacity:0;}.cls-58{opacity:0.09;}.cls-59{opacity:0.18;}.cls-60{opacity:0.27;}.cls-61{opacity:0.36;}.cls-62{opacity:0.45;}.cls-63{opacity:0.55;}.cls-64{opacity:0.64;}.cls-65{opacity:0.73;}.cls-66{opacity:0.82;}.cls-67{opacity:0.91;}.cls-68{fill:url(#linear-gradient-49);}.cls-69{fill:url(#linear-gradient-50);}.cls-70{fill:url(#linear-gradient-51);}.cls-71{fill:url(#linear-gradient-52);}.cls-72{fill:url(#Radial_Gradient_1-2);}.cls-73{fill:url(#New_Gradient_Swatch_copy);}.cls-74{fill:url(#linear-gradient-53);}.cls-75{fill:url(#linear-gradient-54);}.cls-76{fill:url(#linear-gradient-55);}.cls-77{fill:url(#linear-gradient-56);}.cls-78{fill:url(#New_Gradient_Swatch_copy_38);}.cls-79{fill:url(#linear-gradient-57);}.cls-80{fill:url(#Radial_Gradient_1-3);}.cls-81{fill:url(#radial-gradient);}.cls-82{fill:url(#linear-gradient-58);}.cls-83{fill:url(#linear-gradient-59);}.cls-84{fill:url(#linear-gradient-60);}.cls-85{fill:url(#linear-gradient-61);}.cls-86{fill:url(#linear-gradient-62);}.cls-87{fill:url(#linear-gradient-63);}.cls-88{fill:url(#linear-gradient-64);}.cls-89{fill:url(#linear-gradient-65);}.cls-90{fill:url(#linear-gradient-66);}.cls-91{fill:#c7bcd6;}.cls-92{fill:url(#linear-gradient-67);}.cls-93{fill:url(#linear-gradient-68);}.cls-94{fill:url(#linear-gradient-69);}.cls-95{fill:url(#linear-gradient-70);}.cls-96{fill:url(#New_Gradient_Swatch_copy_7-2);}.cls-97{fill:url(#New_Gradient_Swatch_copy_7-3);}.cls-98{fill:url(#New_Gradient_Swatch_copy_9);}.cls-99{fill:url(#New_Gradient_Swatch_copy_9-2);}.cls-100{fill:#b086cc;}.cls-101{fill:url(#New_Gradient_Swatch_copy_8);}.cls-102{fill:url(#Radial_Gradient_1-4);}.cls-103{fill:url(#Radial_Gradient_1-5);}.cls-104{fill:url(#Radial_Gradient_1-6);}.cls-105{fill:url(#Radial_Gradient_1-7);}.cls-106{fill:url(#Radial_Gradient_1-8);}.cls-107{fill:#e0ecf7;}.cls-110{opacity:0.6;}.cls-111{opacity:0.4;}.cls-112{opacity:0.25;}.cls-113{opacity:0.15;}.cls-114{opacity:0.3;}.cls-115{opacity:0.5;}.cls-117{fill:url(#New_Gradient_Swatch_copy_8-2);}.cls-118{fill:url(#New_Gradient_Swatch_copy_9-3);}</style><linearGradient id="New_Gradient_Swatch_copy_7" x1="226.2" y1="156.38" x2="142.06" y2="10.08" gradientUnits="userSpaceOnUse"><stop offset="0.04" stop-color="#138bbd"/><stop offset="0.23" stop-color="#169ac7"/><stop offset="0.59" stop-color="#1fc3df"/><stop offset="1" stop-color="#2af6ff"/></linearGradient><radialGradient id="Radial_Gradient_1" cx="180.16" cy="76.32" r="49.93" gradientUnits="userSpaceOnUse"><stop offset="0" stop-color="#fff"/><stop offset="1"/></radialGradient><linearGradient id="linear-gradient" x1="165.96" y1="53.71" x2="172.14" y2="53.71" gradientUnits="userSpaceOnUse"><stop offset="0" stop-color="#fff"/><stop offset="0.94" stop-color="#9ec3e5"/></linearGradient><linearGradient id="linear-gradient-2" x1="162.39" y1="66.96" x2="168.54" y2="66.96" xlink:href="#linear-gradient"/><linearGradient id="linear-gradient-3" x1="161.34" y1="55.22" x2="168.21" y2="55.22" xlink:href="#linear-gradient"/><linearGradient id="linear-gradient-4" x1="160.99" y1="61.5" x2="164.49" y2="61.5" xlink:href="#linear-gradient"/><linearGradient id="linear-gradient-5" x1="150.04" y1="59.79" x2="155.72" y2="59.79" xlink:href="#linear-gradient"/><linearGradient id="linear-gradient-6" x1="166.31" y1="64.97" x2="171.18" y2="64.97" xlink:href="#linear-gradient"/><linearGradient id="linear-gradient-7" x1="164.18" y1="59.46" x2="167.07" y2="59.46" xlink:href="#linear-gradient"/><linearGradient id="linear-gradient-8" x1="173.96" y1="56.98" x2="175.54" y2="56.98" xlink:href="#linear-gradient"/><linearGradient id="linear-gradient-9" x1="156.48" y1="55.93" x2="162.36" y2="55.93" xlink:href="#linear-gradient"/><linearGradient id="linear-gradient-10" x1="170.04" y1="60.7" x2="178.7" y2="60.7" xlink:href="#linear-gradient"/><linearGradient id="linear-gradient-11" x1="151.81" y1="57.39" x2="159.2" y2="57.39" xlink:href="#linear-gradient"/><linearGradient id="linear-gradient-12" x1="153.59" y1="46.51" x2="159.37" y2="46.51" xlink:href="#linear-gradient"/><linearGradient id="linear-gradient-13" x1="161.19" y1="50.06" x2="164.13" y2="50.06" xlink:href="#linear-gradient"/><linearGradient id="linear-gradient-14" x1="157.54" y1="63.29" x2="160.59" y2="63.29" xlink:href="#linear-gradient"/><linearGradient id="linear-gradient-15" x1="177.08" y1="72.08" x2="184.96" y2="72.08" xlink:href="#linear-gradient"/><linearGradient id="linear-gradient-16" x1="145.43" y1="56.35" x2="148.22" y2="56.35" xlink:href="#linear-gradient"/><linearGradient id="linear-gradient-17" x1="139.73" y1="40.72" x2="152.12" y2="40.72" xlink:href="#linear-gradient"/><linearGradient id="linear-gradient-18" x1="178.91" y1="67.89" x2="181.82" y2="67.89" xlink:href="#linear-gradient"/><linearGradient id="linear-gradient-19" x1="180.53" y1="68.13" x2="194.14" y2="68.13" xlink:href="#linear-gradient"/><linearGradient id="linear-gradient-20" x1="168.9" y1="63.67" x2="177.11" y2="63.67" xlink:href="#linear-gradient"/><linearGradient id="linear-gradient-21" x1="177.36" y1="60.36" x2="183.9" y2="60.36" xlink:href="#linear-gradient"/><linearGradient id="linear-gradient-22" x1="145.43" y1="53.03" x2="149.99" y2="53.03" xlink:href="#linear-gradient"/><linearGradient id="linear-gradient-23" x1="173" y1="68.09" x2="175.28" y2="68.09" xlink:href="#linear-gradient"/><linearGradient id="linear-gradient-24" x1="145.43" y1="50.59" x2="154.65" y2="50.59" xlink:href="#linear-gradient"/><linearGradient id="linear-gradient-25" x1="170.24" y1="75.48" x2="177.64" y2="75.48" xlink:href="#linear-gradient"/><linearGradient id="linear-gradient-26" x1="145.43" y1="48.2" x2="159.52" y2="48.2" xlink:href="#linear-gradient"/><linearGradient id="linear-gradient-27" x1="162.39" y1="82.04" x2="168.54" y2="82.04" xlink:href="#linear-gradient"/><linearGradient id="linear-gradient-28" x1="161.34" y1="70.3" x2="168.21" y2="70.3" xlink:href="#linear-gradient"/><linearGradient id="linear-gradient-29" x1="160.99" y1="76.58" x2="164.49" y2="76.58" xlink:href="#linear-gradient"/><linearGradient id="linear-gradient-30" x1="150.04" y1="74.86" x2="155.72" y2="74.86" xlink:href="#linear-gradient"/><linearGradient id="linear-gradient-31" x1="166.31" y1="80.05" x2="171.18" y2="80.05" xlink:href="#linear-gradient"/><linearGradient id="linear-gradient-32" x1="164.18" y1="74.54" x2="167.07" y2="74.54" xlink:href="#linear-gradient"/><linearGradient id="linear-gradient-33" x1="156.48" y1="71.01" x2="162.36" y2="71.01" xlink:href="#linear-gradient"/><linearGradient id="linear-gradient-34" x1="151.81" y1="72.47" x2="159.2" y2="72.47" xlink:href="#linear-gradient"/><linearGradient id="linear-gradient-35" x1="157.54" y1="78.37" x2="160.59" y2="78.37" xlink:href="#linear-gradient"/><linearGradient id="linear-gradient-36" x1="177.08" y1="87.16" x2="184.96" y2="87.16" xlink:href="#linear-gradient"/><linearGradient id="linear-gradient-37" x1="145.43" y1="71.43" x2="148.22" y2="71.43" xlink:href="#linear-gradient"/><linearGradient id="linear-gradient-38" x1="178.91" y1="82.97" x2="181.82" y2="82.97" xlink:href="#linear-gradient"/><linearGradient id="linear-gradient-39" x1="168.9" y1="78.74" x2="177.11" y2="78.74" xlink:href="#linear-gradient"/><linearGradient id="linear-gradient-40" x1="145.43" y1="68.11" x2="149.99" y2="68.11" xlink:href="#linear-gradient"/><linearGradient id="linear-gradient-41" x1="173" y1="83.17" x2="175.28" y2="83.17" xlink:href="#linear-gradient"/><linearGradient id="linear-gradient-42" x1="145.43" y1="65.66" x2="154.65" y2="65.66" xlink:href="#linear-gradient"/><linearGradient id="linear-gradient-43" x1="160" y1="83.39" x2="162.89" y2="83.39" xlink:href="#linear-gradient"/><linearGradient id="linear-gradient-44" x1="152.3" y1="79.85" x2="158.18" y2="79.85" xlink:href="#linear-gradient"/><linearGradient id="linear-gradient-45" x1="174.72" y1="91.82" x2="177.64" y2="91.82" xlink:href="#linear-gradient"/><linearGradient id="linear-gradient-46" x1="164.71" y1="87.59" x2="172.93" y2="87.59" xlink:href="#linear-gradient"/><linearGradient id="linear-gradient-47" x1="141.25" y1="74.51" x2="150.47" y2="74.51" xlink:href="#linear-gradient"/><linearGradient id="linear-gradient-48" x1="145.43" y1="63.27" x2="159.52" y2="63.27" xlink:href="#linear-gradient"/><linearGradient id="linear-gradient-49" x1="332.04" y1="297.38" x2="594.98" y2="297.38" gradientUnits="userSpaceOnUse"><stop offset="0.06" stop-color="#200041"/><stop offset="0.26" stop-color="#210243"/><stop offset="0.36" stop-color="#25084b"/><stop offset="0.43" stop-color="#2c1358"/><stop offset="0.47" stop-color="#311b61"/><stop offset="0.48" stop-color="#351f65"/><stop offset="0.5" stop-color="#422c73"/><stop offset="0.51" stop-color="#584188"/><stop offset="0.52" stop-color="#765fa7"/><stop offset="0.53" stop-color="#8770b8"/><stop offset="0.54" stop-color="#7e67ae"/><stop offset="0.56" stop-color="#5c468d"/><stop offset="0.59" stop-color="#442e75"/><stop offset="0.61" stop-color="#362066"/><stop offset="0.63" stop-color="#311b61"/><stop offset="0.67" stop-color="#2a1155"/><stop offset="0.75" stop-color="#230446"/><stop offset="0.81" stop-color="#200041"/><stop offset="1" stop-color="#200041"/></linearGradient><linearGradient id="linear-gradient-50" x1="318" y1="290.49" x2="570.96" y2="290.49" gradientUnits="userSpaceOnUse"><stop offset="0" stop-color="#311b61"/><stop offset="0.2" stop-color="#290f52"/><stop offset="0.49" stop-color="#200041"/><stop offset="1" stop-color="#0f001f"/></linearGradient><linearGradient id="linear-gradient-51" x1="333.81" y1="332.58" x2="596.74" y2="332.58" xlink:href="#linear-gradient-49"/><linearGradient id="linear-gradient-52" x1="320.83" y1="290.49" x2="568.13" y2="290.49" gradientUnits="userSpaceOnUse"><stop offset="0" stop-color="#3d065f"/><stop offset="1" stop-color="#5f27bd"/></linearGradient><radialGradient id="Radial_Gradient_1-2" cx="454.33" cy="335.38" r="94.93" xlink:href="#Radial_Gradient_1"/><radialGradient id="New_Gradient_Swatch_copy" cx="1407.92" cy="-1901.94" r="35.36" gradientTransform="matrix(1, 0, 0, 0.59, -984.33, 1379.66)" gradientUnits="userSpaceOnUse"><stop offset="0" stop-color="#972a74"/><stop offset="0.04" stop-color="#8a266a"/><stop offset="0.19" stop-color="#601b4a"/><stop offset="0.35" stop-color="#3d112f"/><stop offset="0.51" stop-color="#230a1b"/><stop offset="0.67" stop-color="#0f040c"/><stop offset="0.83" stop-color="#040103"/><stop offset="1"/></radialGradient><linearGradient id="linear-gradient-53" x1="-348.14" y1="487.29" x2="-426.16" y2="428.31" gradientTransform="matrix(0.87, 0.5, -1.5, 0.29, 1448.71, 356.84)" gradientUnits="userSpaceOnUse"><stop offset="0" stop-color="#3d065f"/><stop offset="1" stop-color="#260556"/></linearGradient><linearGradient id="linear-gradient-54" x1="5330.15" y1="50.88" x2="5066.99" y2="279.46" gradientTransform="matrix(-1, 0, 0, 1, 5661.35, 0)" gradientUnits="userSpaceOnUse"><stop offset="0.19" stop-color="#3d065f"/><stop offset="0.93" stop-color="#3d065f"/></linearGradient><linearGradient id="linear-gradient-55" x1="5327.37" y1="53.29" x2="5068.63" y2="278.03" gradientTransform="matrix(-1, 0, 0, 1, 5661.35, 0)" xlink:href="#linear-gradient-50"/><linearGradient id="linear-gradient-56" x1="378.86" y1="55.83" x2="628.9" y2="350.02" gradientUnits="userSpaceOnUse"><stop offset="0.01" stop-color="#2af6ff"/><stop offset="0.06" stop-color="#3ec0f2"/><stop offset="0.11" stop-color="#518fe5"/><stop offset="0.16" stop-color="#6066db"/><stop offset="0.21" stop-color="#6c46d3"/><stop offset="0.26" stop-color="#752fce"/><stop offset="0.3" stop-color="#7a22ca"/><stop offset="0.34" stop-color="#7c1dc9"/><stop offset="0.49" stop-color="#5e1699"/><stop offset="0.74" stop-color="#300b4e"/><stop offset="0.91" stop-color="#13051f"/><stop offset="1" stop-color="#08020d"/></linearGradient><linearGradient id="New_Gradient_Swatch_copy_38" x1="400.19" y1="80.69" x2="582.6" y2="295.74" gradientUnits="userSpaceOnUse"><stop offset="0" stop-color="#7c1dc9"/><stop offset="0.03" stop-color="#741bbd"/><stop offset="0.16" stop-color="#56148b"/><stop offset="0.3" stop-color="#3b0e60"/><stop offset="0.43" stop-color="#26093e"/><stop offset="0.57" stop-color="#150523"/><stop offset="0.71" stop-color="#09020f"/><stop offset="0.85" stop-color="#020104"/><stop offset="1"/></linearGradient><linearGradient id="linear-gradient-57" x1="1593.69" y1="306.25" x2="1464.33" y2="99.55" gradientTransform="translate(-985.58)" xlink:href="#linear-gradient-49"/><radialGradient id="Radial_Gradient_1-3" cx="1556.78" cy="179.26" r="21.98" gradientTransform="translate(-985.58)" xlink:href="#Radial_Gradient_1"/><radialGradient id="radial-gradient" cx="513.85" cy="7547.19" r="10.31" gradientTransform="matrix(0, 1, -0.66, 0, 5582.86, -337.94)" xlink:href="#New_Gradient_Swatch_copy"/><linearGradient id="linear-gradient-58" x1="497.19" y1="239.32" x2="451.96" y2="288.57" gradientUnits="userSpaceOnUse"><stop offset="0" stop-color="#3d065f"/><stop offset="1" stop-color="#12054e"/><stop offset="1" stop-color="#10054d"/></linearGradient><linearGradient id="linear-gradient-59" x1="437.6" y1="252.42" x2="437.6" y2="272.54" gradientUnits="userSpaceOnUse"><stop offset="0" stop-color="#3d065f"/><stop offset="1" stop-color="#521b9a"/></linearGradient><linearGradient id="linear-gradient-60" x1="450.63" y1="238.62" x2="434.3" y2="258.59" gradientUnits="userSpaceOnUse"><stop offset="0" stop-color="#3d065f"/><stop offset="0.77" stop-color="#5e26ba"/><stop offset="1" stop-color="#6f2bcf"/></linearGradient><linearGradient id="linear-gradient-61" x1="453.13" y1="261" x2="453.13" y2="282.88" xlink:href="#linear-gradient-59"/><linearGradient id="linear-gradient-62" x1="466.17" y1="247.19" x2="449.83" y2="267.16" xlink:href="#linear-gradient-60"/><linearGradient id="linear-gradient-63" x1="468.66" y1="270.83" x2="468.66" y2="288.17" xlink:href="#linear-gradient-59"/><linearGradient id="linear-gradient-64" x1="481.7" y1="255.76" x2="465.36" y2="275.73" xlink:href="#linear-gradient-60"/><linearGradient id="linear-gradient-65" x1="484.19" y1="279.5" x2="484.19" y2="294.92" xlink:href="#linear-gradient-59"/><linearGradient id="linear-gradient-66" x1="497.23" y1="264.34" x2="480.89" y2="284.31" xlink:href="#linear-gradient-60"/><linearGradient id="linear-gradient-67" x1="445.22" y1="279.66" x2="440.55" y2="303.74" xlink:href="#linear-gradient-59"/><linearGradient id="linear-gradient-68" x1="465.67" y1="251.09" x2="440.11" y2="282.34" xlink:href="#linear-gradient-60"/><linearGradient id="linear-gradient-69" x1="491.66" y1="297.37" x2="494.49" y2="314.87" xlink:href="#linear-gradient-59"/><linearGradient id="linear-gradient-70" x1="520.25" y1="258.33" x2="484.32" y2="302.24" xlink:href="#linear-gradient-60"/><linearGradient id="New_Gradient_Swatch_copy_7-2" x1="323.43" y1="170.61" x2="266.43" y2="98.61" xlink:href="#New_Gradient_Swatch_copy_7"/><linearGradient id="New_Gradient_Swatch_copy_7-3" x1="232.85" y1="126.92" x2="199.35" y2="68.67" xlink:href="#New_Gradient_Swatch_copy_7"/><linearGradient id="New_Gradient_Swatch_copy_9" x1="502.11" y1="166.74" x2="489.11" y2="128.74" gradientUnits="userSpaceOnUse"><stop offset="0.04" stop-color="#9f19ab"/><stop offset="0.24" stop-color="#ae25b1"/><stop offset="0.65" stop-color="#d744bf"/><stop offset="1" stop-color="#ff63ce"/></linearGradient><linearGradient id="New_Gradient_Swatch_copy_9-2" x1="502.19" y1="252.45" x2="481.69" y2="216.95" xlink:href="#New_Gradient_Swatch_copy_9"/><linearGradient id="New_Gradient_Swatch_copy_8" x1="279.59" y1="121.09" x2="256.34" y2="82.34" gradientUnits="userSpaceOnUse"><stop offset="0.04" stop-color="#ffa98c"/><stop offset="0.32" stop-color="#ffb892"/><stop offset="0.86" stop-color="#fee1a3"/><stop offset="1" stop-color="#feeca8"/></linearGradient><radialGradient id="Radial_Gradient_1-4" cx="304.46" cy="146.63" r="19.88" xlink:href="#Radial_Gradient_1"/><radialGradient id="Radial_Gradient_1-5" cx="214.52" cy="95.04" r="19.88" xlink:href="#Radial_Gradient_1"/><radialGradient id="Radial_Gradient_1-6" cx="496.83" cy="149.72" r="17.89" xlink:href="#Radial_Gradient_1"/><radialGradient id="Radial_Gradient_1-7" cx="495.2" cy="239.33" r="17.89" xlink:href="#Radial_Gradient_1"/><radialGradient id="Radial_Gradient_1-8" cx="265.99" cy="96.15" r="16.5" xlink:href="#Radial_Gradient_1"/><linearGradient id="New_Gradient_Swatch_copy_8-2" x1="384.33" y1="142.69" x2="369.59" y2="118.12" xlink:href="#New_Gradient_Swatch_copy_8"/><linearGradient id="New_Gradient_Swatch_copy_9-3" x1="597.05" y1="182" x2="588.25" y2="156.26" xlink:href="#New_Gradient_Swatch_copy_9"/></defs><g class="cls-1"><g id="Layer_1" data-name="Layer 1"><polygon class="cls-2" points="227.47 128.74 132.85 74.11 132.85 23.91 227.47 78.54 227.47 128.74"/><polygon class="cls-3" points="132.85 23.91 132.85 25.89 226.21 79.79 226.21 128.01 227.47 128.74 227.47 78.54 132.85 23.91"/><g class="cls-4"><polygon class="cls-5" points="165.96 52.85 172.14 56.4 172.14 54.57 165.96 51.03 165.96 52.85"/><polygon class="cls-6" points="168.54 67.83 162.39 64.28 162.39 66.1 168.54 69.65 168.54 67.83"/><polygon class="cls-7" points="168.21 58.08 168.21 56.26 161.34 52.36 161.34 54.19 168.21 58.08"/><polygon class="cls-8" points="161 59.58 161 61.41 164.49 63.42 164.49 61.6 161 59.58"/><polygon class="cls-9" points="155.72 62.31 155.72 60.48 150.04 57.27 150.04 59.09 155.72 62.31"/><polygon class="cls-10" points="171.18 65.46 166.31 62.65 166.31 64.48 171.18 67.29 171.18 65.46"/><polygon class="cls-11" points="164.18 57.73 164.18 59.55 167.07 61.2 167.07 59.38 164.18 57.73"/><polygon class="cls-12" points="173.97 55.61 173.97 57.44 175.54 58.35 175.54 56.53 173.97 55.61"/><polygon class="cls-13" points="162.36 58.52 162.36 56.69 156.48 53.34 156.48 55.17 162.36 58.52"/><polygon class="cls-14" points="170.04 57.3 170.04 59.13 178.7 64.09 178.7 62.26 170.04 57.3"/><polygon class="cls-15" points="159.2 60.37 159.2 58.55 151.81 54.41 151.81 56.24 159.2 60.37"/><polygon class="cls-16" points="153.59 43.95 153.59 45.77 159.37 49.08 159.37 47.26 153.59 43.95"/><polygon class="cls-17" points="164.13 49.98 161.19 48.3 161.19 50.13 164.13 51.81 164.13 49.98"/><polygon class="cls-18" points="160.59 63.24 157.54 61.51 157.54 63.34 160.59 65.06 160.59 63.24"/><polygon class="cls-19" points="177.08 70.7 184.96 75.28 184.96 73.46 177.08 68.88 177.08 70.7"/><polygon class="cls-20" points="148.22 56.24 145.43 54.63 145.43 56.46 148.22 58.06 148.22 56.24"/><polygon class="cls-21" points="139.73 36.28 139.73 38.1 152.12 45.17 152.12 43.34 139.73 36.28"/><polygon class="cls-22" points="178.91 67.96 181.82 69.66 181.82 67.83 178.91 66.13 178.91 67.96"/><polygon class="cls-23" points="180.53 65.14 194.14 72.95 194.14 71.12 180.53 63.31 180.53 65.14"/><polygon class="cls-24" points="168.9 62.24 177.11 66.92 177.11 65.09 168.9 60.41 168.9 62.24"/><polygon class="cls-25" points="177.36 57.57 177.36 59.4 183.9 63.14 183.9 61.31 177.36 57.57"/><polygon class="cls-26" points="149.99 53.39 145.43 50.84 145.43 52.66 149.99 55.22 149.99 53.39"/><polygon class="cls-27" points="175.28 67.84 173 66.52 173 68.34 175.28 69.66 175.28 67.84"/><polygon class="cls-28" points="154.65 52.3 145.43 47.05 145.43 48.87 154.65 54.13 154.65 52.3"/><polygon class="cls-29" points="170.24 74.28 177.64 78.5 177.64 76.67 170.24 72.45 170.24 74.28"/><polygon class="cls-30" points="159.52 51.32 145.43 43.25 145.43 45.08 159.52 53.14 159.52 51.32"/></g><g class="cls-4"><polygon class="cls-31" points="168.54 82.91 162.39 79.35 162.39 81.18 168.54 84.73 168.54 82.91"/><polygon class="cls-32" points="168.21 73.16 168.21 71.33 161.34 67.44 161.34 69.27 168.21 73.16"/><polygon class="cls-33" points="161 74.66 161 76.49 164.49 78.5 164.49 76.68 161 74.66"/><polygon class="cls-34" points="155.72 77.38 155.72 75.56 150.04 72.35 150.04 74.17 155.72 77.38"/><polygon class="cls-35" points="171.18 80.54 166.31 77.73 166.31 79.56 171.18 82.37 171.18 80.54"/><polygon class="cls-36" points="164.18 72.81 164.18 74.63 167.07 76.28 167.07 74.45 164.18 72.81"/><polygon class="cls-37" points="162.36 73.59 162.36 71.77 156.48 68.42 156.48 70.24 162.36 73.59"/><polygon class="cls-38" points="159.2 75.45 159.2 73.62 151.81 69.49 151.81 71.32 159.2 75.45"/><polygon class="cls-39" points="160.59 78.32 157.54 76.59 157.54 78.42 160.59 80.14 160.59 78.32"/><polygon class="cls-40" points="177.08 85.78 184.96 90.36 184.96 88.53 177.08 83.95 177.08 85.78"/><polygon class="cls-41" points="148.22 71.31 145.43 69.71 145.43 71.54 148.22 73.14 148.22 71.31"/><polygon class="cls-42" points="178.91 83.03 181.82 84.73 181.82 82.91 178.91 81.21 178.91 83.03"/><polygon class="cls-43" points="168.9 77.32 177.11 82 177.11 80.17 168.9 75.49 168.9 77.32"/><polygon class="cls-44" points="149.99 68.47 145.43 65.92 145.43 67.74 149.99 70.3 149.99 68.47"/><polygon class="cls-45" points="175.28 82.92 173 81.59 173 83.42 175.28 84.74 175.28 82.92"/><polygon class="cls-46" points="154.65 67.38 145.43 62.12 145.43 63.95 154.65 69.2 154.65 67.38"/><polygon class="cls-47" points="160 81.65 160 83.48 162.89 85.12 162.89 83.3 160 81.65"/><polygon class="cls-48" points="158.18 82.44 158.18 80.61 152.3 77.26 152.3 79.09 158.18 82.44"/><polygon class="cls-49" points="174.72 91.88 177.64 93.58 177.64 91.75 174.72 90.05 174.72 91.88"/><polygon class="cls-50" points="164.72 86.16 172.93 90.84 172.93 89.02 164.72 84.34 164.72 86.16"/><polygon class="cls-51" points="150.47 76.22 141.25 70.97 141.25 72.79 150.47 78.05 150.47 76.22"/><polygon class="cls-52" points="159.52 66.39 145.43 58.33 145.43 60.15 159.52 68.22 159.52 66.39"/></g><g class="cls-4"><path class="cls-53" d="M475.44,410.57a19.48,19.48,0,0,1-2.27-.19.44.44,0,0,1-.37-.51.45.45,0,0,1,.5-.38,15.73,15.73,0,0,0,2.16.18.45.45,0,0,1,0,.9Z" transform="translate(-229.67 -86.34)"/><path class="cls-53" d="M477.22,410.07a.44.44,0,0,1,.39-.5,12.39,12.39,0,0,0,2.1-.42.45.45,0,0,1,.55.31.44.44,0,0,1-.3.55,13,13,0,0,1-2.25.45h0A.44.44,0,0,1,477.22,410.07Z" transform="translate(-229.67 -86.34)"/><path class="cls-53" d="M471,409.91a16.07,16.07,0,0,1-2.15-.77.45.45,0,0,1-.22-.59.44.44,0,0,1,.59-.23,13.77,13.77,0,0,0,2,.73.45.45,0,0,1-.12.88Z" transform="translate(-229.67 -86.34)"/><path class="cls-53" d="M481.51,409a.46.46,0,0,1,.18-.62l1.92-1.11a.45.45,0,0,1,.45.77l-1.93,1.11-.25-.36.22.38a.42.42,0,0,1-.21.06A.45.45,0,0,1,481.51,409Z" transform="translate(-229.67 -86.34)"/><path class="cls-53" d="M466.81,408.07,464.89,407a.43.43,0,0,1-.16-.61.44.44,0,0,1,.61-.16l1.92,1.11a.45.45,0,0,1,.16.61.44.44,0,0,1-.39.22A.46.46,0,0,1,466.81,408.07Z" transform="translate(-229.67 -86.34)"/><path class="cls-53" d="M485.37,406.72a.44.44,0,0,1,.16-.61l1.92-1.11a.45.45,0,0,1,.61.16.44.44,0,0,1-.16.61L486,406.88a.46.46,0,0,1-.22.06A.44.44,0,0,1,485.37,406.72Z" transform="translate(-229.67 -86.34)"/><path class="cls-53" d="M463,405.86l-1.92-1.11a.45.45,0,0,1-.17-.61.46.46,0,0,1,.62-.17l1.92,1.11a.45.45,0,0,1,.16.61.43.43,0,0,1-.39.23A.46.46,0,0,1,463,405.86Z" transform="translate(-229.67 -86.34)"/><path class="cls-53" d="M489.21,404.5a.44.44,0,0,1,.16-.61l1.92-1.11a.45.45,0,0,1,.45.78l-1.92,1.11a.46.46,0,0,1-.22.06A.43.43,0,0,1,489.21,404.5Z" transform="translate(-229.67 -86.34)"/><path class="cls-53" d="M459.13,403.64l-1.92-1.11a.45.45,0,0,1-.17-.61.46.46,0,0,1,.62-.17l1.92,1.11a.45.45,0,0,1,.16.61.43.43,0,0,1-.39.23A.46.46,0,0,1,459.13,403.64Z" transform="translate(-229.67 -86.34)"/><path class="cls-53" d="M493.05,402.29a.45.45,0,0,1,.16-.62l1.92-1.1a.43.43,0,0,1,.61.16.44.44,0,0,1-.16.61l-1.92,1.11a.46.46,0,0,1-.22.06A.44.44,0,0,1,493.05,402.29Z" transform="translate(-229.67 -86.34)"/><path class="cls-53" d="M455.29,401.42l-1.92-1.11a.45.45,0,0,1-.17-.61.45.45,0,0,1,.62-.16l1.92,1.11a.45.45,0,0,1,.16.61.44.44,0,0,1-.39.22A.46.46,0,0,1,455.29,401.42Z" transform="translate(-229.67 -86.34)"/><path class="cls-53" d="M496.89,400.07a.44.44,0,0,1,.16-.61l1.92-1.11a.44.44,0,0,1,.61.16.43.43,0,0,1-.16.61l-1.92,1.11a.46.46,0,0,1-.22.06A.44.44,0,0,1,496.89,400.07Z" transform="translate(-229.67 -86.34)"/><path class="cls-53" d="M451.45,399.2l-1.92-1.1a.46.46,0,0,1-.17-.62.45.45,0,0,1,.61-.16l1.92,1.11a.44.44,0,0,1-.22.83A.43.43,0,0,1,451.45,399.2Z" transform="translate(-229.67 -86.34)"/><path class="cls-53" d="M500.73,397.85a.45.45,0,0,1,.16-.61l1.92-1.11a.46.46,0,0,1,.62.16.46.46,0,0,1-.17.62l-1.92,1.1a.37.37,0,0,1-.22.06A.44.44,0,0,1,500.73,397.85Z" transform="translate(-229.67 -86.34)"/><path class="cls-53" d="M447.61,397l-1.92-1.11a.45.45,0,1,1,.44-.78l1.92,1.11a.45.45,0,0,1-.22.84A.43.43,0,0,1,447.61,397Z" transform="translate(-229.67 -86.34)"/><path class="cls-53" d="M504.57,395.63a.45.45,0,0,1,.16-.61l1.92-1.11a.46.46,0,0,1,.62.17.45.45,0,0,1-.17.61l-1.92,1.11a.46.46,0,0,1-.22.06A.43.43,0,0,1,504.57,395.63Z" transform="translate(-229.67 -86.34)"/><path class="cls-53" d="M443.77,394.77l-1.92-1.11a.45.45,0,0,1,.44-.78l1.92,1.11a.46.46,0,0,1,.17.62.47.47,0,0,1-.39.22A.43.43,0,0,1,443.77,394.77Z" transform="translate(-229.67 -86.34)"/><path class="cls-53" d="M510.91,364.47,509,363.36a.45.45,0,0,1,.44-.78l1.92,1.11a.45.45,0,0,1,.17.61.43.43,0,0,1-.39.23A.43.43,0,0,1,510.91,364.47Z" transform="translate(-229.67 -86.34)"/><path class="cls-53" d="M507.07,362.25l-1.92-1.11a.45.45,0,0,1-.17-.61.44.44,0,0,1,.61-.16l1.92,1.1a.45.45,0,0,1-.22.84A.43.43,0,0,1,507.07,362.25Z" transform="translate(-229.67 -86.34)"/><path class="cls-53" d="M503.23,360l-1.92-1.11a.44.44,0,1,1,.44-.77l1.92,1.11a.44.44,0,0,1,.17.61.47.47,0,0,1-.39.22A.43.43,0,0,1,503.23,360Z" transform="translate(-229.67 -86.34)"/><path class="cls-53" d="M358,248l-1.92-1.11a.45.45,0,0,1,.45-.78l1.92,1.11a.45.45,0,0,1,.16.61.43.43,0,0,1-.39.23A.46.46,0,0,1,358,248Z" transform="translate(-229.67 -86.34)"/><path class="cls-53" d="M354.15,245.73l-1.92-1.11a.43.43,0,0,1-.16-.61.44.44,0,0,1,.61-.16l1.92,1.1a.45.45,0,0,1,.16.62.44.44,0,0,1-.39.22A.46.46,0,0,1,354.15,245.73Z" transform="translate(-229.67 -86.34)"/><path class="cls-53" d="M350.31,243.51l-1.92-1.11a.43.43,0,0,1-.16-.61.44.44,0,0,1,.61-.16l1.92,1.11a.45.45,0,0,1,.16.61.44.44,0,0,1-.39.22A.46.46,0,0,1,350.31,243.51Z" transform="translate(-229.67 -86.34)"/><path class="cls-53" d="M508.41,393.42a.46.46,0,0,1,.16-.62l1.92-1.1a.45.45,0,0,1,.62.16.45.45,0,0,1-.17.61L509,393.58a.46.46,0,0,1-.22.06A.44.44,0,0,1,508.41,393.42Z" transform="translate(-229.67 -86.34)"/><path class="cls-53" d="M290.91,247.25a.45.45,0,0,1,.16-.61l1.92-1.11a.46.46,0,0,1,.62.16.44.44,0,0,1-.17.61l-1.92,1.11a.46.46,0,0,1-.22.06A.44.44,0,0,1,290.91,247.25Z" transform="translate(-229.67 -86.34)"/><path class="cls-53" d="M294.75,245a.45.45,0,0,1,.16-.61l1.92-1.11a.46.46,0,0,1,.62.16.46.46,0,0,1-.17.62l-1.92,1.1a.38.38,0,0,1-.22.07A.45.45,0,0,1,294.75,245Z" transform="translate(-229.67 -86.34)"/><path class="cls-53" d="M298.59,242.81a.45.45,0,0,1,.16-.61l1.92-1.11a.46.46,0,0,1,.62.17.45.45,0,0,1-.17.61L299.2,243a.46.46,0,0,1-.22.06A.43.43,0,0,1,298.59,242.81Z" transform="translate(-229.67 -86.34)"/><path class="cls-53" d="M554.57,364.75a.45.45,0,0,1,.16-.61l1.92-1.11a.46.46,0,0,1,.62.16.46.46,0,0,1-.17.62l-1.92,1.1a.37.37,0,0,1-.22.06A.44.44,0,0,1,554.57,364.75Z" transform="translate(-229.67 -86.34)"/><path class="cls-53" d="M558.41,362.53a.45.45,0,0,1,.16-.61l1.92-1.11a.46.46,0,0,1,.62.17.45.45,0,0,1-.17.61L559,362.7a.46.46,0,0,1-.22.06A.43.43,0,0,1,558.41,362.53Z" transform="translate(-229.67 -86.34)"/><path class="cls-53" d="M562.25,360.32a.46.46,0,0,1,.17-.62l1.92-1.1a.44.44,0,1,1,.44.77l-1.92,1.11a.43.43,0,0,1-.22.06A.46.46,0,0,1,562.25,360.32Z" transform="translate(-229.67 -86.34)"/><path class="cls-53" d="M385.14,332.15a.45.45,0,0,1,.16-.62l1.92-1.1a.45.45,0,1,1,.45.77l-1.92,1.11a.46.46,0,0,1-.23.06A.44.44,0,0,1,385.14,332.15Z" transform="translate(-229.67 -86.34)"/><path class="cls-53" d="M389,329.93a.44.44,0,0,1,.16-.61l1.92-1.11a.45.45,0,0,1,.61.16.44.44,0,0,1-.16.61l-1.92,1.11a.46.46,0,0,1-.22.06A.44.44,0,0,1,389,329.93Z" transform="translate(-229.67 -86.34)"/><path class="cls-53" d="M392.82,327.71a.44.44,0,0,1,.16-.61L394.9,326a.45.45,0,0,1,.61.16.45.45,0,0,1-.16.62l-1.92,1.1a.38.38,0,0,1-.22.07A.45.45,0,0,1,392.82,327.71Z" transform="translate(-229.67 -86.34)"/><path class="cls-53" d="M393.33,223.16l-1.92-1.11a.45.45,0,0,1,.45-.78l1.92,1.11a.44.44,0,0,1,.16.61.43.43,0,0,1-.38.23A.46.46,0,0,1,393.33,223.16Zm-3.84-2.22-1.92-1.11a.45.45,0,0,1,.45-.78l1.92,1.11a.45.45,0,0,1,.16.61.43.43,0,0,1-.39.23A.46.46,0,0,1,389.49,220.94Zm-3.84-2.22-1.92-1.11a.45.45,0,1,1,.45-.77L386.1,218a.45.45,0,0,1-.23.83A.46.46,0,0,1,385.65,218.72Zm-3.84-2.22-1.92-1.11a.43.43,0,0,1-.16-.61.44.44,0,0,1,.61-.16l1.92,1.11a.45.45,0,0,1-.23.83A.46.46,0,0,1,381.81,216.5ZM378,214.29l-1.92-1.11a.44.44,0,0,1-.16-.61.44.44,0,0,1,.61-.17l1.92,1.11a.45.45,0,0,1,.16.61.43.43,0,0,1-.39.23A.46.46,0,0,1,378,214.29Zm-34.21-1.2a.45.45,0,0,1,.16-.61l1.92-1.11a.44.44,0,0,1,.61.17.43.43,0,0,1-.16.61l-1.92,1.11a.46.46,0,0,1-.22.06A.43.43,0,0,1,343.76,213.09Zm30.37-1L372.21,211a.45.45,0,0,1-.17-.61.46.46,0,0,1,.62-.17l1.92,1.11a.46.46,0,0,1,.16.62.44.44,0,0,1-.39.22A.46.46,0,0,1,374.13,212.07Zm-26.53-1.19a.45.45,0,0,1,.16-.61l1.92-1.11a.44.44,0,0,1,.61.16.43.43,0,0,1-.16.61L348.21,211a.46.46,0,0,1-.22.06A.44.44,0,0,1,347.6,210.88Zm22.69-1-1.92-1.11a.44.44,0,0,1-.17-.61.45.45,0,0,1,.62-.16l1.92,1.11a.45.45,0,0,1,.16.61.44.44,0,0,1-.39.22A.46.46,0,0,1,370.29,209.85Zm46.11,26.63-1.92-1.11a.45.45,0,0,1-.17-.61.45.45,0,0,1,.62-.16l1.92,1.1a.46.46,0,0,1,.16.62.44.44,0,0,1-.39.22A.46.46,0,0,1,416.4,236.48Zm-3.84-2.22-1.92-1.11a.44.44,0,0,1-.17-.61.45.45,0,0,1,.62-.16l1.92,1.11a.45.45,0,0,1,.16.61.44.44,0,0,1-.39.22A.46.46,0,0,1,412.56,234.26Zm-3.84-2.21-1.92-1.11a.45.45,0,1,1,.45-.78l1.92,1.11a.45.45,0,0,1,.16.61.43.43,0,0,1-.39.23A.46.46,0,0,1,408.72,232.05Zm-3.84-2.22L403,228.72a.45.45,0,1,1,.44-.78l1.92,1.11a.45.45,0,0,1,.17.61.43.43,0,0,1-.39.23A.43.43,0,0,1,404.88,229.83ZM401,227.61l-1.92-1.11a.44.44,0,1,1,.44-.77l1.92,1.11a.44.44,0,0,1,.17.61.46.46,0,0,1-.39.22A.43.43,0,0,1,401,227.61Zm-3.84-2.22-1.92-1.11a.44.44,0,1,1,.44-.77l1.92,1.11a.45.45,0,0,1,.17.61.47.47,0,0,1-.39.22A.43.43,0,0,1,397.2,225.39Zm-45.76-16.73a.45.45,0,0,1,.16-.61l1.93-1.11a.44.44,0,0,1,.6.17.45.45,0,0,1-.18.61l-1.9,1.1a.46.46,0,0,1-.22.06A.44.44,0,0,1,351.44,208.66Zm15-.94a15.67,15.67,0,0,0-2-.72.45.45,0,0,1-.31-.55.45.45,0,0,1,.55-.32,15.12,15.12,0,0,1,2.15.77.45.45,0,0,1,.23.59.46.46,0,0,1-.41.27A.37.37,0,0,1,366.46,207.72Zm-11.1-1.12a.45.45,0,0,1,.3-.56,15.18,15.18,0,0,1,2.25-.45.47.47,0,0,1,.5.39.46.46,0,0,1-.4.5,13.1,13.1,0,0,0-2.09.42l-.13,0A.46.46,0,0,1,355.36,206.6Zm7,0a17.45,17.45,0,0,0-2.15-.17.45.45,0,0,1-.44-.46.45.45,0,0,1,.45-.44,17.38,17.38,0,0,1,2.27.19.45.45,0,0,1,.38.5.46.46,0,0,1-.45.39Z" transform="translate(-229.67 -86.34)"/><path class="cls-53" d="M363.16,369.16a17.21,17.21,0,0,1-2.26-.18.45.45,0,0,1-.38-.51.46.46,0,0,1,.51-.38,19.48,19.48,0,0,0,2.15.18.45.45,0,1,1,0,.89Zm1.78-.5a.45.45,0,0,1,.4-.49,13.1,13.1,0,0,0,2.09-.42.45.45,0,1,1,.26.86,15.18,15.18,0,0,1-2.25.45h-.05A.45.45,0,0,1,364.94,368.66Zm-6.26-.15a15.14,15.14,0,0,1-2.15-.78.44.44,0,0,1-.23-.59.45.45,0,0,1,.59-.22,15.67,15.67,0,0,0,2,.72.45.45,0,0,1-.12.88Zm10.55-1a.47.47,0,0,1,.18-.62l1.92-1.11a.46.46,0,0,1,.62.17.45.45,0,0,1-.17.61l-1.94,1.12-.24-.38.22.39a.38.38,0,0,1-.21,0A.44.44,0,0,1,369.23,367.54Zm-14.7-.87-1.92-1.11a.45.45,0,0,1-.16-.61.43.43,0,0,1,.61-.16l1.92,1.1a.45.45,0,0,1,.17.61.46.46,0,0,1-.39.23A.49.49,0,0,1,354.53,366.67Zm18.56-1.35a.46.46,0,0,1,.16-.62l1.93-1.1a.44.44,0,1,1,.44.77l-1.92,1.11a.43.43,0,0,1-.22.06A.44.44,0,0,1,373.09,365.32Zm-22.4-.87-1.92-1.11a.45.45,0,0,1-.16-.61.44.44,0,0,1,.61-.16l1.92,1.11a.44.44,0,0,1,.17.61.47.47,0,0,1-.39.22A.46.46,0,0,1,350.69,364.45Zm26.24-1.35a.44.44,0,0,1,.17-.61l1.92-1.11a.45.45,0,0,1,.61.16.44.44,0,0,1-.17.61l-1.92,1.11a.43.43,0,0,1-.22.06A.46.46,0,0,1,376.93,363.1Zm-30.08-.87-1.92-1.11a.45.45,0,0,1-.16-.61.44.44,0,0,1,.61-.16l1.92,1.11a.45.45,0,0,1,.17.61.47.47,0,0,1-.39.22A.38.38,0,0,1,346.85,362.23Zm33.92-1.35a.45.45,0,0,1,.17-.61l1.92-1.11a.45.45,0,1,1,.44.78l-1.92,1.1a.35.35,0,0,1-.22.06A.46.46,0,0,1,380.77,360.88ZM343,360l-1.92-1.11a.45.45,0,0,1-.16-.61.45.45,0,0,1,.61-.17l1.92,1.11a.43.43,0,0,1,.16.61.43.43,0,0,1-.38.23A.46.46,0,0,1,343,360Zm41.6-1.36a.45.45,0,0,1,.17-.61l1.92-1.11a.45.45,0,0,1,.61.17.45.45,0,0,1-.16.61l-1.93,1.11a.43.43,0,0,1-.22.06A.45.45,0,0,1,384.61,358.66Zm-45.44-.86-1.92-1.11a.44.44,0,0,1-.16-.61.43.43,0,0,1,.61-.16l1.92,1.1a.45.45,0,0,1,.16.62.44.44,0,0,1-.38.22A.46.46,0,0,1,339.17,357.8Zm49.28-1.35a.46.46,0,0,1,.17-.62l1.92-1.1a.45.45,0,0,1,.61.16.45.45,0,0,1-.16.61l-1.92,1.11a.49.49,0,0,1-.23.06A.47.47,0,0,1,388.45,356.45Zm-53.12-.87-1.92-1.11a.45.45,0,1,1,.45-.77l1.92,1.11a.45.45,0,0,1-.22.83A.46.46,0,0,1,335.33,355.58Zm57-1.35a.44.44,0,0,1,.17-.61l1.92-1.11a.45.45,0,0,1,.45.77l-1.92,1.11a.49.49,0,0,1-.23.06A.47.47,0,0,1,392.29,354.23Zm-60.8-.86-1.92-1.11a.45.45,0,0,1-.16-.62.44.44,0,0,1,.61-.16l1.92,1.11a.44.44,0,0,1,.16.61.43.43,0,0,1-.38.23A.46.46,0,0,1,331.49,353.37ZM396.13,352a.45.45,0,0,1,.17-.61l1.92-1.11a.45.45,0,0,1,.61.16.46.46,0,0,1-.16.62l-1.92,1.1a.41.41,0,0,1-.23.07A.48.48,0,0,1,396.13,352Zm-68.48-.86-.62-.36a10.2,10.2,0,0,1-1.3-.88.45.45,0,0,1,.56-.7,9.54,9.54,0,0,0,1.19.81l.62.35a.45.45,0,0,1,.16.61.43.43,0,0,1-.39.23A.46.46,0,0,1,327.65,351.15ZM400,349.8a.44.44,0,0,1,.15-.61,5,5,0,0,0,1.5-1.35.46.46,0,0,1,.63-.11.44.44,0,0,1,.1.62,5.77,5.77,0,0,1-1.77,1.6.39.39,0,0,1-.23.07A.44.44,0,0,1,400,349.8Zm-75.85-1.6a4.42,4.42,0,0,1-.77-2.31.45.45,0,1,1,.89,0,3.57,3.57,0,0,0,.63,1.84.46.46,0,0,1-.13.62.47.47,0,0,1-.25.07A.43.43,0,0,1,324.13,348.2ZM402.2,346a3.58,3.58,0,0,0-.64-1.84.45.45,0,1,1,.75-.49,4.4,4.4,0,0,1,.78,2.3.45.45,0,0,1-.43.47h0A.44.44,0,0,1,402.2,346Zm-78-1.86a.44.44,0,0,1-.1-.62,5.73,5.73,0,0,1,1.77-1.59.45.45,0,0,1,.62.15.44.44,0,0,1-.15.61,5,5,0,0,0-1.51,1.34.44.44,0,0,1-.37.19A.42.42,0,0,1,324.2,344.17Zm75.94-1.48a10.38,10.38,0,0,0-1.17-.79l-.64-.37a.45.45,0,0,1-.16-.61.44.44,0,0,1,.61-.16l.63.37a9.33,9.33,0,0,1,1.29.86.45.45,0,0,1,.07.63.44.44,0,0,1-.63.07Zm-72.5-1.24a.44.44,0,0,1,.16-.61l1.92-1.11a.45.45,0,0,1,.45.78l-1.92,1.11a.46.46,0,0,1-.22.06A.43.43,0,0,1,327.64,341.45Zm68.77-1-1.92-1.11a.45.45,0,0,1,.45-.78l1.92,1.11a.44.44,0,0,1,.16.61.43.43,0,0,1-.38.23A.46.46,0,0,1,396.41,340.43Zm-64.93-1.2a.45.45,0,0,1,.16-.61l1.92-1.11a.44.44,0,0,1,.61.17.43.43,0,0,1-.16.61l-1.92,1.11a.46.46,0,0,1-.22.06A.43.43,0,0,1,331.48,339.23Zm61.09-1-1.92-1.11a.45.45,0,1,1,.45-.77l1.92,1.1a.45.45,0,0,1,.16.62.44.44,0,0,1-.38.22A.46.46,0,0,1,392.57,338.21ZM335.32,337a.45.45,0,0,1,.16-.61l1.92-1.11a.45.45,0,0,1,.61.16.43.43,0,0,1-.16.61l-1.92,1.11a.46.46,0,0,1-.22.06A.44.44,0,0,1,335.32,337Zm53.41-1-1.92-1.11a.45.45,0,1,1,.45-.77l1.92,1.11a.45.45,0,0,1-.22.83A.46.46,0,0,1,388.73,336Zm-49.57-1.19a.45.45,0,0,1,.16-.61l1.92-1.11a.45.45,0,0,1,.45.78l-1.92,1.1a.37.37,0,0,1-.22.06A.44.44,0,0,1,339.16,334.8Zm45.73-1-1.92-1.1a.45.45,0,0,1,.45-.78l1.92,1.11a.45.45,0,0,1-.22.83A.38.38,0,0,1,384.89,333.77ZM343,332.58a.45.45,0,0,1,.16-.61l1.92-1.11a.46.46,0,0,1,.62.17.45.45,0,0,1-.17.61l-1.92,1.11a.46.46,0,0,1-.22.06A.43.43,0,0,1,343,332.58Zm38.05-1-1.92-1.11a.45.45,0,0,1,.45-.78l1.92,1.11a.45.45,0,0,1,.16.61.43.43,0,0,1-.38.23A.46.46,0,0,1,381.05,331.56Zm-34.21-1.19a.46.46,0,0,1,.16-.62l1.92-1.1a.45.45,0,0,1,.62.16.45.45,0,0,1-.17.61l-1.92,1.11a.46.46,0,0,1-.22.06A.44.44,0,0,1,346.84,330.37Zm30.37-1-1.92-1.11a.45.45,0,1,1,.45-.77l1.92,1.1a.45.45,0,0,1,.16.62.44.44,0,0,1-.39.22A.46.46,0,0,1,377.21,329.34Zm-26.53-1.19a.45.45,0,0,1,.16-.61l1.92-1.11a.46.46,0,0,1,.62.16.44.44,0,0,1-.17.61l-1.92,1.11a.46.46,0,0,1-.22.06A.44.44,0,0,1,350.68,328.15Zm22.69-1L371.45,326a.45.45,0,1,1,.45-.77l1.92,1.11a.45.45,0,0,1-.23.83A.46.46,0,0,1,373.37,327.12Zm-18.85-1.19a.45.45,0,0,1,.16-.61l1.88-1.08.05,0a.44.44,0,0,1,.6.17.47.47,0,0,1-.17.62l-1.91,1.09a.37.37,0,0,1-.22.06A.44.44,0,0,1,354.52,325.93Zm15-.94a15.67,15.67,0,0,0-2-.72.45.45,0,1,1,.24-.86,15.56,15.56,0,0,1,2.15.76.45.45,0,0,1,.23.59.46.46,0,0,1-.41.27A.39.39,0,0,1,369.54,325Zm-11.1-1.12a.44.44,0,0,1,.3-.55,14,14,0,0,1,2.25-.46.46.46,0,0,1,.5.39.45.45,0,0,1-.4.5,13.1,13.1,0,0,0-2.09.42.32.32,0,0,1-.13,0A.45.45,0,0,1,358.44,323.87Zm7,0a15.59,15.59,0,0,0-2.15-.18.44.44,0,0,1-.44-.46.43.43,0,0,1,.45-.44,19.12,19.12,0,0,1,2.27.19.45.45,0,0,1-.06.89Z" transform="translate(-229.67 -86.34)"/><path class="cls-53" d="M420,401.65a19.3,19.3,0,0,1-2.27-.19.46.46,0,0,1-.38-.51.46.46,0,0,1,.51-.38,15.72,15.72,0,0,0,2.15.18.45.45,0,0,1,0,.9Zm1.78-.5a.44.44,0,0,1,.39-.5,13.46,13.46,0,0,0,2.1-.42.45.45,0,0,1,.25.86,13,13,0,0,1-2.25.45h-.05A.44.44,0,0,1,421.75,401.15Zm-6.27-.16a15.58,15.58,0,0,1-2.15-.77.45.45,0,0,1-.22-.6.44.44,0,0,1,.59-.22,15,15,0,0,0,2,.72.45.45,0,0,1,.31.56.46.46,0,0,1-.43.32ZM426,400a.46.46,0,0,1,.18-.62l1.92-1.11a.45.45,0,0,1,.61.17.45.45,0,0,1-.16.61l-1.94,1.12-.24-.38.22.39a.42.42,0,0,1-.21.06A.44.44,0,0,1,426,400Zm-14.7-.87L409.42,398a.45.45,0,1,1,.45-.77l1.92,1.1a.46.46,0,0,1,.16.62.44.44,0,0,1-.39.22A.46.46,0,0,1,411.34,399.15Zm18.56-1.35a.45.45,0,0,1,.16-.62l1.92-1.1a.45.45,0,0,1,.45.77L430.51,398a.46.46,0,0,1-.23.06A.44.44,0,0,1,429.9,397.8Zm-22.4-.87-1.92-1.11a.44.44,0,1,1,.44-.77l1.93,1.11a.45.45,0,0,1,.16.61.44.44,0,0,1-.39.22A.46.46,0,0,1,407.5,396.93Zm26.24-1.35a.44.44,0,0,1,.16-.61l1.92-1.11a.45.45,0,0,1,.61.16.44.44,0,0,1-.16.61l-1.92,1.11a.46.46,0,0,1-.23.06A.44.44,0,0,1,433.74,395.58Zm-30.08-.87-1.92-1.1a.45.45,0,1,1,.44-.78l1.92,1.11a.44.44,0,0,1-.22.83A.43.43,0,0,1,403.66,394.71Zm33.92-1.35a.44.44,0,0,1,.16-.61l1.92-1.11a.45.45,0,0,1,.45.78l-1.92,1.11a.46.46,0,0,1-.23.06A.43.43,0,0,1,437.58,393.36Zm-37.76-.86-1.92-1.11a.45.45,0,1,1,.44-.78l1.92,1.11a.45.45,0,0,1,.17.61.46.46,0,0,1-.39.23A.43.43,0,0,1,399.82,392.5Zm41.6-1.36a.45.45,0,0,1,.16-.61l1.92-1.11a.45.45,0,0,1,.45.78L442,391.31a.46.46,0,0,1-.22.06A.43.43,0,0,1,441.42,391.14ZM396,390.28l-1.92-1.11a.45.45,0,0,1-.17-.61.43.43,0,0,1,.61-.16l1.92,1.1a.46.46,0,0,1,.17.62.47.47,0,0,1-.39.22A.43.43,0,0,1,396,390.28Zm49.28-1.35a.44.44,0,0,1,.16-.61l1.92-1.11a.45.45,0,0,1,.45.77l-1.92,1.11a.46.46,0,0,1-.22.06A.44.44,0,0,1,445.26,388.93Zm-53.13-.87L390.21,387a.45.45,0,0,1-.16-.61.44.44,0,0,1,.61-.16l1.92,1.11a.44.44,0,0,1,.17.61.47.47,0,0,1-.39.22A.49.49,0,0,1,392.13,388.06Zm57-1.35a.44.44,0,0,1,.16-.61l1.92-1.11a.45.45,0,0,1,.61.16.45.45,0,0,1-.16.62l-1.92,1.1a.46.46,0,0,1-.22.06A.44.44,0,0,1,449.1,386.71Zm-60.81-.87-1.92-1.1a.46.46,0,0,1-.16-.62.44.44,0,0,1,.61-.16l1.92,1.11a.45.45,0,0,1,.17.61.48.48,0,0,1-.39.23A.41.41,0,0,1,388.29,385.84Zm64.65-1.35a.45.45,0,0,1,.16-.61l1.92-1.11a.45.45,0,0,1,.45.78l-1.92,1.11a.46.46,0,0,1-.22.06A.43.43,0,0,1,452.94,384.49Zm-68.49-.86-.61-.36a9.84,9.84,0,0,1-1.3-.88.45.45,0,0,1-.08-.63.46.46,0,0,1,.63-.07,11.39,11.39,0,0,0,1.2.81l.61.35a.45.45,0,0,1,.17.61.46.46,0,0,1-.39.23A.46.46,0,0,1,384.45,383.63Zm72.33-1.35a.44.44,0,0,1,.15-.61,5,5,0,0,0,1.5-1.35.46.46,0,0,1,.63-.11.45.45,0,0,1,.11.62,5.76,5.76,0,0,1-1.77,1.6.39.39,0,0,1-.23.07A.47.47,0,0,1,456.78,382.28Zm-75.85-1.6a4.42,4.42,0,0,1-.77-2.31.45.45,0,0,1,.44-.46.5.5,0,0,1,.46.44,3.46,3.46,0,0,0,.62,1.84.45.45,0,0,1-.75.49ZM459,378.51a3.57,3.57,0,0,0-.63-1.84.44.44,0,0,1,.13-.62.45.45,0,0,1,.62.13,4.52,4.52,0,0,1,.78,2.3.46.46,0,0,1-.44.47h0A.46.46,0,0,1,459,378.51Zm-78-1.86a.45.45,0,0,1-.11-.62,5.89,5.89,0,0,1,1.78-1.59.44.44,0,1,1,.46.76,5.12,5.12,0,0,0-1.51,1.34.41.41,0,0,1-.36.19A.42.42,0,0,1,381,376.65ZM457,375.17a11,11,0,0,0-1.18-.79l-.63-.36a.46.46,0,0,1-.17-.62.46.46,0,0,1,.62-.16l.63.37a10.56,10.56,0,0,1,1.28.86.45.45,0,0,1,.08.63.46.46,0,0,1-.35.17A.42.42,0,0,1,457,375.17Zm-72.51-1.24a.45.45,0,0,1,.17-.61l1.92-1.11a.45.45,0,0,1,.61.17.45.45,0,0,1-.16.61l-1.92,1.11a.49.49,0,0,1-.23.06A.46.46,0,0,1,384.44,373.93Zm68.78-1-1.92-1.11a.45.45,0,0,1-.17-.61.46.46,0,0,1,.62-.17l1.92,1.11a.45.45,0,0,1,.16.61.43.43,0,0,1-.39.23A.46.46,0,0,1,453.22,372.91Zm-64.94-1.19a.46.46,0,0,1,.17-.62l1.92-1.1a.43.43,0,0,1,.61.16.45.45,0,0,1-.16.61l-1.92,1.11a.49.49,0,0,1-.23.06A.47.47,0,0,1,388.28,371.72Zm61.1-1-1.92-1.11a.44.44,0,1,1,.44-.77l1.93,1.1a.46.46,0,0,1,.16.62.44.44,0,0,1-.39.22A.46.46,0,0,1,449.38,370.69Zm-57.26-1.19a.44.44,0,0,1,.17-.61l1.92-1.11a.45.45,0,0,1,.45.77l-1.92,1.11a.46.46,0,0,1-.23.06A.47.47,0,0,1,392.12,369.5Zm53.42-1-1.92-1.11a.44.44,0,1,1,.44-.77L446,367.7a.44.44,0,0,1-.22.83A.43.43,0,0,1,445.54,368.47ZM396,367.28a.45.45,0,0,1,.17-.61l1.92-1.11a.45.45,0,0,1,.61.16.46.46,0,0,1-.16.62l-1.92,1.1a.38.38,0,0,1-.23.06A.47.47,0,0,1,396,367.28Zm45.74-1-1.92-1.11a.45.45,0,1,1,.44-.78l1.92,1.11a.45.45,0,0,1,.17.61.46.46,0,0,1-.39.23A.43.43,0,0,1,441.7,366.26Zm-41.89-1.2a.44.44,0,0,1,.16-.61l1.92-1.11a.45.45,0,0,1,.61.17.45.45,0,0,1-.16.61l-1.92,1.11a.46.46,0,0,1-.23.06A.43.43,0,0,1,399.81,365.06Zm38.05-1-1.92-1.11a.45.45,0,0,1,.44-.78l1.92,1.11a.45.45,0,0,1,.17.61.46.46,0,0,1-.39.23A.43.43,0,0,1,437.86,364Zm-34.21-1.19a.45.45,0,0,1,.16-.62l1.92-1.1a.44.44,0,0,1,.61.16.45.45,0,0,1-.16.61L404.26,363a.46.46,0,0,1-.23.06A.44.44,0,0,1,403.65,362.85Zm30.36-1-1.92-1.11a.45.45,0,0,1-.16-.61.44.44,0,0,1,.61-.16l1.92,1.11a.44.44,0,0,1,.17.61.47.47,0,0,1-.39.22A.49.49,0,0,1,434,361.82Zm-26.52-1.19a.44.44,0,0,1,.16-.61l1.92-1.11a.45.45,0,0,1,.61.16.44.44,0,0,1-.16.61l-1.92,1.11a.46.46,0,0,1-.23.06A.44.44,0,0,1,407.49,360.63Zm22.68-1-1.92-1.1a.46.46,0,0,1-.16-.62.44.44,0,0,1,.61-.16l1.92,1.11a.45.45,0,0,1,.17.61.47.47,0,0,1-.39.22A.49.49,0,0,1,430.17,359.6Zm-18.84-1.19a.44.44,0,0,1,.16-.61l1.92-1.11a.44.44,0,0,1,.6.17.46.46,0,0,1-.17.62l-1.9,1.09a.39.39,0,0,1-.23.07A.45.45,0,0,1,411.33,358.41Zm15-.94a15,15,0,0,0-2-.72.45.45,0,0,1,.24-.86,16,16,0,0,1,2.15.76.46.46,0,0,1,.22.6.44.44,0,0,1-.41.26A.39.39,0,0,1,426.34,357.47Zm-11.09-1.12a.43.43,0,0,1,.3-.55,13.87,13.87,0,0,1,2.24-.46.46.46,0,0,1,.5.4.44.44,0,0,1-.39.49,13.23,13.23,0,0,0-2.1.42.25.25,0,0,1-.12,0A.43.43,0,0,1,415.25,356.35Zm6.95,0a15.46,15.46,0,0,0-2.15-.18.45.45,0,0,1-.44-.46.45.45,0,0,1,.46-.44,19.13,19.13,0,0,1,2.26.19.45.45,0,0,1-.06.89Z" transform="translate(-229.67 -86.34)"/><path class="cls-53" d="M589.19,369.18a17.22,17.22,0,0,1-2.26-.19.43.43,0,0,1-.38-.5.45.45,0,0,1,.51-.38,19.48,19.48,0,0,0,2.15.18.45.45,0,1,1,0,.89Zm1.78-.5a.46.46,0,0,1,.4-.5,12.28,12.28,0,0,0,2.09-.41.44.44,0,0,1,.56.3.45.45,0,0,1-.31.56,13.88,13.88,0,0,1-2.24.44h-.05A.45.45,0,0,1,591,368.68Zm-6.26-.16a15.12,15.12,0,0,1-2.15-.77.45.45,0,1,1,.36-.82,14.33,14.33,0,0,0,2,.73.45.45,0,0,1,.31.55.46.46,0,0,1-.43.33Zm10.55-1a.47.47,0,0,1,.18-.62l1.92-1.11a.46.46,0,0,1,.62.16.44.44,0,0,1-.17.61l-2,1.14a.46.46,0,0,1-.2.05A.45.45,0,0,1,595.26,367.56Zm-14.7-.88-1.92-1.1a.46.46,0,0,1-.16-.62.44.44,0,0,1,.61-.16l1.92,1.11a.45.45,0,0,1,.17.61.47.47,0,0,1-.39.22A.38.38,0,0,1,580.56,366.68Zm18.56-1.35a.45.45,0,0,1,.17-.61l1.92-1.11a.45.45,0,1,1,.44.78l-1.92,1.11a.43.43,0,0,1-.22.06A.45.45,0,0,1,599.12,365.33Zm-22.4-.86-1.92-1.11a.45.45,0,0,1-.16-.61.45.45,0,0,1,.61-.17l1.92,1.11a.43.43,0,0,1,.16.61.43.43,0,0,1-.38.23A.46.46,0,0,1,576.72,364.47ZM603,363.12a.46.46,0,0,1,.17-.62l1.92-1.11a.45.45,0,0,1,.44.78l-1.92,1.11a.43.43,0,0,1-.22.06A.47.47,0,0,1,603,363.12Zm-30.08-.87L571,361.14a.44.44,0,0,1-.16-.61.43.43,0,0,1,.61-.16l1.92,1.1a.45.45,0,0,1,.16.62.44.44,0,0,1-.38.22A.46.46,0,0,1,572.88,362.25Zm33.92-1.35a.44.44,0,0,1,.17-.61l1.92-1.11a.44.44,0,1,1,.44.77l-1.92,1.11a.43.43,0,0,1-.22.06A.44.44,0,0,1,606.8,360.9ZM569,360l-1.92-1.11a.45.45,0,1,1,.45-.77l1.92,1.11a.45.45,0,0,1-.22.83A.46.46,0,0,1,569,360Zm41.6-1.35a.45.45,0,0,1,.17-.61l1.92-1.11a.45.45,0,0,1,.61.16.46.46,0,0,1-.16.62l-1.92,1.1a.49.49,0,0,1-.23.06A.47.47,0,0,1,610.64,358.68Zm-45.44-.86-1.92-1.11a.45.45,0,0,1,.45-.78l1.92,1.11a.44.44,0,0,1,.16.61.43.43,0,0,1-.38.23A.46.46,0,0,1,565.2,357.82Zm49.28-1.36a.45.45,0,0,1,.17-.61l1.92-1.11a.45.45,0,0,1,.61.17.45.45,0,0,1-.16.61l-1.92,1.11a.49.49,0,0,1-.23.06A.46.46,0,0,1,614.48,356.46Zm-53.12-.86-1.92-1.11a.45.45,0,0,1,.45-.78l1.92,1.11a.45.45,0,0,1,.16.61.43.43,0,0,1-.39.23A.46.46,0,0,1,561.36,355.6Zm57-1.35a.46.46,0,0,1,.17-.62l1.92-1.1a.44.44,0,0,1,.61.16.45.45,0,0,1-.16.61l-1.92,1.11a.49.49,0,0,1-.23.06A.47.47,0,0,1,618.32,354.25Zm-60.8-.87-1.92-1.11a.45.45,0,1,1,.45-.77l1.92,1.11a.45.45,0,0,1-.23.83A.46.46,0,0,1,557.52,353.38ZM622.16,352a.44.44,0,0,1,.17-.61l1.92-1.11a.45.45,0,0,1,.61.16.45.45,0,0,1-.16.61l-1.92,1.11a.46.46,0,0,1-.23.06A.47.47,0,0,1,622.16,352Zm-68.48-.87-.61-.35a10,10,0,0,1-1.31-.88.45.45,0,1,1,.56-.7,9.86,9.86,0,0,0,1.19.8l.62.36a.45.45,0,0,1-.23.83A.46.46,0,0,1,553.68,351.16ZM626,349.82a.45.45,0,0,1,.15-.62,5,5,0,0,0,1.5-1.34.44.44,0,0,1,.63-.11.45.45,0,0,1,.11.62,6,6,0,0,1-1.77,1.6.53.53,0,0,1-.24.06A.43.43,0,0,1,626,349.82Zm-75.86-1.61a4.4,4.4,0,0,1-.76-2.3.44.44,0,0,1,.43-.46.43.43,0,0,1,.46.43,3.57,3.57,0,0,0,.63,1.84.45.45,0,0,1-.14.62.43.43,0,0,1-.24.08A.47.47,0,0,1,550.15,348.21Zm78.08-2.16a3.57,3.57,0,0,0-.63-1.84.45.45,0,0,1,.12-.62.44.44,0,0,1,.62.13,4.32,4.32,0,0,1,.78,2.3.44.44,0,0,1-.43.46h0A.44.44,0,0,1,628.23,346.05Zm-78-1.86a.45.45,0,0,1-.11-.63,5.79,5.79,0,0,1,1.78-1.59.45.45,0,0,1,.46.77,4.87,4.87,0,0,0-1.51,1.34.45.45,0,0,1-.36.19A.5.5,0,0,1,550.24,344.19Zm75.94-1.48a10.53,10.53,0,0,0-1.18-.79l-.64-.37a.45.45,0,0,1-.16-.61.44.44,0,0,1,.61-.16l.64.36a10.24,10.24,0,0,1,1.28.87.45.45,0,0,1,.08.63.46.46,0,0,1-.36.17A.41.41,0,0,1,626.18,342.71Zm-72.51-1.24a.45.45,0,0,1,.16-.61l1.92-1.11a.45.45,0,0,1,.61.16.43.43,0,0,1-.16.61l-1.92,1.11a.46.46,0,0,1-.22.06A.44.44,0,0,1,553.67,341.47Zm68.77-1-1.92-1.11a.45.45,0,1,1,.45-.77l1.92,1.11a.45.45,0,0,1,.17.61.47.47,0,0,1-.39.22A.4.4,0,0,1,622.44,340.44Zm-64.93-1.19a.45.45,0,0,1,.16-.61l1.92-1.11a.46.46,0,0,1,.62.16.46.46,0,0,1-.17.62l-1.92,1.11a.46.46,0,0,1-.22.06A.43.43,0,0,1,557.51,339.25Zm61.09-1-1.92-1.11a.45.45,0,0,1-.16-.61.45.45,0,0,1,.61-.17l1.92,1.11a.45.45,0,0,1,.17.61.46.46,0,0,1-.39.23A.49.49,0,0,1,618.6,338.23ZM561.35,337a.45.45,0,0,1,.16-.61l1.92-1.11a.46.46,0,0,1,.62.17.45.45,0,0,1-.17.61L562,337.2a.46.46,0,0,1-.22.06A.43.43,0,0,1,561.35,337Zm53.41-1-1.92-1.11a.45.45,0,0,1-.16-.61.43.43,0,0,1,.61-.16l1.92,1.1a.44.44,0,0,1,.16.61.43.43,0,0,1-.38.23A.46.46,0,0,1,614.76,336Zm-49.57-1.19a.46.46,0,0,1,.16-.62l1.93-1.1a.44.44,0,0,1,.61.16.45.45,0,0,1-.17.61L565.8,335a.46.46,0,0,1-.22.06A.44.44,0,0,1,565.19,334.82Zm45.73-1L609,332.68a.45.45,0,1,1,.45-.77l1.92,1.11a.45.45,0,0,1-.22.83A.46.46,0,0,1,610.92,333.79ZM569,332.6a.45.45,0,0,1,.17-.61l1.92-1.11a.45.45,0,0,1,.61.16.44.44,0,0,1-.17.61l-1.92,1.11a.43.43,0,0,1-.22.06A.47.47,0,0,1,569,332.6Zm38.05-1-1.92-1.1a.45.45,0,0,1,.45-.78l1.92,1.11a.45.45,0,0,1-.22.83A.38.38,0,0,1,607.08,331.57Zm-34.21-1.19a.45.45,0,0,1,.17-.61l1.92-1.11a.45.45,0,1,1,.44.78l-1.92,1.11a.43.43,0,0,1-.22.06A.45.45,0,0,1,572.87,330.38Zm30.37-1-1.92-1.11a.45.45,0,0,1,.45-.78l1.92,1.11a.44.44,0,0,1,.16.61.43.43,0,0,1-.38.23A.46.46,0,0,1,603.24,329.36Zm-26.53-1.2a.45.45,0,0,1,.17-.61l1.92-1.11a.45.45,0,0,1,.44.78l-1.92,1.11a.43.43,0,0,1-.22.06A.46.46,0,0,1,576.71,328.16Zm22.69-1L597.48,326a.44.44,0,0,1-.16-.61.43.43,0,0,1,.61-.16l1.92,1.1a.45.45,0,0,1,.16.62.44.44,0,0,1-.38.22A.46.46,0,0,1,599.4,327.14ZM580.55,326a.44.44,0,0,1,.17-.61l1.92-1.11.22.39-.22-.39a.42.42,0,0,1,.6.17.45.45,0,0,1-.17.61l-1.91,1.1a.43.43,0,0,1-.22.06A.47.47,0,0,1,580.55,326Zm15-.94a13.88,13.88,0,0,0-2-.72.47.47,0,0,1-.31-.56.45.45,0,0,1,.55-.31,15.12,15.12,0,0,1,2.15.77.45.45,0,0,1-.18.86A.58.58,0,0,1,595.57,325Zm-11.1-1.12a.45.45,0,0,1,.31-.56,13.87,13.87,0,0,1,2.24-.45.46.46,0,0,1,.5.39.45.45,0,0,1-.39.5,13.23,13.23,0,0,0-2.1.42l-.13,0A.46.46,0,0,1,584.47,323.89Zm7-.05a17.3,17.3,0,0,0-2.15-.17.45.45,0,0,1-.44-.46.43.43,0,0,1,.46-.44,19.11,19.11,0,0,1,2.26.18.46.46,0,0,1,.38.51.44.44,0,0,1-.44.39Z" transform="translate(-229.67 -86.34)"/><path class="cls-53" d="M533.65,401.88a19.13,19.13,0,0,1-2.26-.19.46.46,0,0,1-.38-.51.46.46,0,0,1,.51-.38,15.59,15.59,0,0,0,2.15.18.45.45,0,0,1,0,.9Zm1.78-.5a.45.45,0,0,1,.4-.5,13.1,13.1,0,0,0,2.09-.42.45.45,0,0,1,.26.86,13.18,13.18,0,0,1-2.25.45h0A.44.44,0,0,1,535.43,401.38Zm-6.26-.16a15.12,15.12,0,0,1-2.15-.77.45.45,0,0,1,.36-.82,15.69,15.69,0,0,0,2,.73.44.44,0,0,1,.31.55.46.46,0,0,1-.43.32Zm10.55-1a.48.48,0,0,1,.19-.63l1.92-1.1a.44.44,0,1,1,.44.77l-1.95,1.13a.42.42,0,0,1-.21.06A.47.47,0,0,1,539.72,400.26Zm-14.7-.88-1.92-1.11a.45.45,0,0,1-.16-.61.44.44,0,0,1,.61-.16l1.92,1.11a.44.44,0,0,1,.17.61.47.47,0,0,1-.39.22A.49.49,0,0,1,525,399.38ZM543.58,398a.44.44,0,0,1,.17-.61l1.92-1.11a.44.44,0,1,1,.44.77l-1.92,1.11a.43.43,0,0,1-.22.06A.46.46,0,0,1,543.58,398Zm-22.4-.87-1.92-1.11a.45.45,0,1,1,.45-.77l1.92,1.11a.45.45,0,0,1,.17.61.47.47,0,0,1-.39.22A.46.46,0,0,1,521.18,397.16Zm26.24-1.35a.45.45,0,0,1,.17-.61l1.92-1.11a.45.45,0,1,1,.44.78L548,396a.43.43,0,0,1-.22.06A.48.48,0,0,1,547.42,395.81ZM517.34,395l-1.92-1.11a.45.45,0,0,1-.16-.61.45.45,0,0,1,.61-.17l1.92,1.11a.45.45,0,0,1,.17.61.46.46,0,0,1-.39.23A.46.46,0,0,1,517.34,395Zm33.92-1.36a.45.45,0,0,1,.17-.61l1.92-1.11a.45.45,0,0,1,.61.17.45.45,0,0,1-.16.61l-1.93,1.11a.43.43,0,0,1-.22.06A.46.46,0,0,1,551.26,393.59Zm-37.76-.86-1.92-1.11a.45.45,0,0,1-.16-.61.43.43,0,0,1,.61-.16L514,392a.45.45,0,0,1,.16.62.44.44,0,0,1-.38.22A.46.46,0,0,1,513.5,392.73Zm41.6-1.35a.46.46,0,0,1,.17-.62l1.92-1.1a.44.44,0,0,1,.61.16.45.45,0,0,1-.16.61l-1.92,1.11a.46.46,0,0,1-.23.06A.47.47,0,0,1,555.1,391.38Zm-45.44-.87-1.92-1.11a.45.45,0,0,1-.16-.61.44.44,0,0,1,.61-.16l1.92,1.11a.43.43,0,0,1,.16.61.44.44,0,0,1-.38.22A.46.46,0,0,1,509.66,390.51Zm49.28-1.35a.45.45,0,0,1,.17-.61l1.92-1.11a.45.45,0,0,1,.45.77l-1.92,1.11a.46.46,0,0,1-.23.06A.47.47,0,0,1,558.94,389.16Zm-53.12-.87-1.92-1.1a.45.45,0,0,1,.45-.78l1.92,1.11a.45.45,0,0,1-.22.83A.38.38,0,0,1,505.82,388.29Zm57-1.35a.43.43,0,0,1,.16-.61l1.92-1.11a.45.45,0,0,1,.61.17.45.45,0,0,1-.16.61l-1.92,1.11a.46.46,0,0,1-.23.06A.43.43,0,0,1,562.79,386.94ZM502,386.08,500.06,385a.45.45,0,0,1,.45-.78l1.92,1.11a.45.45,0,0,1,.16.61.43.43,0,0,1-.38.23A.46.46,0,0,1,502,386.08Zm64.65-1.35a.45.45,0,0,1,.16-.62l1.92-1.11a.45.45,0,0,1,.61.17.45.45,0,0,1-.16.61l-1.92,1.11a.46.46,0,0,1-.23.06A.44.44,0,0,1,566.63,384.73Zm-68.49-.87-.61-.35a11.06,11.06,0,0,1-1.31-.88.46.46,0,0,1-.07-.63.45.45,0,0,1,.63-.08,9.54,9.54,0,0,0,1.19.81l.62.35a.45.45,0,0,1,.16.62.44.44,0,0,1-.39.22A.46.46,0,0,1,498.14,383.86Zm72.33-1.34a.45.45,0,0,1,.15-.62,4.84,4.84,0,0,0,1.5-1.35.45.45,0,0,1,.74.52,6,6,0,0,1-1.77,1.59.44.44,0,0,1-.24.07A.45.45,0,0,1,570.47,382.52Zm-75.85-1.61a4.42,4.42,0,0,1-.77-2.31.45.45,0,1,1,.89,0,3.57,3.57,0,0,0,.63,1.84.46.46,0,0,1-.13.62.47.47,0,0,1-.25.07A.43.43,0,0,1,494.62,380.91Zm78.07-2.16a3.54,3.54,0,0,0-.63-1.84.45.45,0,0,1,.12-.62.45.45,0,0,1,.63.12,4.42,4.42,0,0,1,.77,2.31.45.45,0,0,1-.43.46h0A.45.45,0,0,1,572.69,378.75Zm-78-1.87a.45.45,0,0,1-.11-.62,5.9,5.9,0,0,1,1.78-1.59.44.44,0,0,1,.46.76,5,5,0,0,0-1.51,1.35.44.44,0,0,1-.36.19A.43.43,0,0,1,494.7,376.88Zm75.94-1.47a9.72,9.72,0,0,0-1.18-.8l-.63-.36a.45.45,0,1,1,.44-.78l.64.37a11.41,11.41,0,0,1,1.28.86.45.45,0,0,1,.08.63.46.46,0,0,1-.63.08Zm-72.51-1.25a.45.45,0,0,1,.16-.61l1.92-1.11a.47.47,0,0,1,.62.17.45.45,0,0,1-.17.61l-1.92,1.11a.46.46,0,0,1-.22.06A.43.43,0,0,1,498.13,374.16Zm68.78-1L565,372a.44.44,0,1,1,.44-.77l1.92,1.11a.44.44,0,0,1,.17.61.47.47,0,0,1-.39.22A.43.43,0,0,1,566.91,373.14ZM502,372a.45.45,0,0,1,.16-.61l1.92-1.11a.45.45,0,0,1,.62.16.44.44,0,0,1-.17.61l-1.92,1.11a.46.46,0,0,1-.22.06A.44.44,0,0,1,502,372Zm61.1-1-1.93-1.11a.45.45,0,0,1-.16-.61.44.44,0,0,1,.61-.16l1.92,1.11a.44.44,0,0,1,.17.61.47.47,0,0,1-.39.22A.43.43,0,0,1,563.07,370.92Zm-57.26-1.19a.45.45,0,0,1,.16-.61L507.9,368a.45.45,0,1,1,.44.78l-1.92,1.1a.46.46,0,0,1-.22.06A.44.44,0,0,1,505.81,369.73Zm53.41-1-1.92-1.11a.45.45,0,0,1-.16-.61.45.45,0,0,1,.61-.17l1.92,1.11a.45.45,0,0,1,.17.61.48.48,0,0,1-.39.23A.46.46,0,0,1,559.22,368.71Zm-49.57-1.2a.45.45,0,0,1,.17-.61l1.92-1.11a.45.45,0,1,1,.44.78l-1.92,1.11a.43.43,0,0,1-.22.06A.43.43,0,0,1,509.65,367.51Zm45.73-1-1.92-1.11a.45.45,0,0,1-.16-.61.45.45,0,0,1,.61-.17l1.92,1.11a.45.45,0,0,1,.17.61.46.46,0,0,1-.39.23A.46.46,0,0,1,555.38,366.49Zm-41.89-1.19a.46.46,0,0,1,.17-.62l1.92-1.1a.44.44,0,1,1,.44.77l-1.92,1.11a.43.43,0,0,1-.22.06A.47.47,0,0,1,513.49,365.3Zm38-1-1.92-1.11a.45.45,0,0,1-.16-.61.44.44,0,0,1,.61-.16L552,363.5a.43.43,0,0,1,.16.61.44.44,0,0,1-.38.22A.46.46,0,0,1,551.54,364.27Zm-34.21-1.19a.44.44,0,0,1,.17-.61l1.92-1.11a.44.44,0,1,1,.44.77l-1.92,1.11a.43.43,0,0,1-.22.06A.47.47,0,0,1,517.33,363.08Zm30.37-1-1.92-1.11a.45.45,0,1,1,.45-.77l1.92,1.11a.45.45,0,0,1-.22.83A.46.46,0,0,1,547.7,362.05Zm-26.53-1.19a.45.45,0,0,1,.17-.61l1.92-1.11a.45.45,0,0,1,.61.16.46.46,0,0,1-.16.62l-1.92,1.1a.4.4,0,0,1-.23.06A.47.47,0,0,1,521.17,360.86Zm22.69-1-1.92-1.11a.45.45,0,0,1,.45-.78l1.92,1.11a.44.44,0,0,1,.16.61.43.43,0,0,1-.38.23A.46.46,0,0,1,543.86,359.84ZM525,358.64a.45.45,0,0,1,.17-.61l1.92-1.11.22.39-.22-.39a.44.44,0,0,1,.6.17.46.46,0,0,1-.17.62l-1.9,1.1a.49.49,0,0,1-.23.06A.46.46,0,0,1,525,358.64Zm15-.94a15,15,0,0,0-2-.72.45.45,0,1,1,.24-.86,15.44,15.44,0,0,1,2.14.77.44.44,0,0,1,.23.59.45.45,0,0,1-.41.26A.39.39,0,0,1,540,357.7Zm-11.1-1.12a.45.45,0,0,1,.31-.55,12.87,12.87,0,0,1,2.24-.45.45.45,0,0,1,.5.39.46.46,0,0,1-.39.5,12.2,12.2,0,0,0-2.1.42l-.13,0A.46.46,0,0,1,528.93,356.58Zm7,0a17.32,17.32,0,0,0-2.15-.18.45.45,0,0,1-.44-.45.42.42,0,0,1,.46-.44,17.21,17.21,0,0,1,2.26.18.45.45,0,0,1-.06.89Z" transform="translate(-229.67 -86.34)"/><path class="cls-53" d="M325,252.1a17.21,17.21,0,0,1-2.26-.18.46.46,0,0,1-.38-.51.46.46,0,0,1,.51-.38,17.32,17.32,0,0,0,2.15.18.45.45,0,1,1,0,.89Zm1.78-.5a.45.45,0,0,1,.4-.49,13.1,13.1,0,0,0,2.09-.42.45.45,0,1,1,.26.86,15.44,15.44,0,0,1-2.25.45h-.05A.45.45,0,0,1,326.79,251.6Zm-6.26-.16a15.12,15.12,0,0,1-2.15-.77.44.44,0,1,1,.36-.81,15.67,15.67,0,0,0,2,.72.45.45,0,0,1,.31.55.46.46,0,0,1-.43.33A.25.25,0,0,1,320.53,251.44Zm10.55-1a.46.46,0,0,1,.19-.62l1.92-1.11a.45.45,0,0,1,.44.78l-2,1.13a.35.35,0,0,1-.2.05A.45.45,0,0,1,331.08,250.48Zm-14.7-.87-1.92-1.11a.45.45,0,0,1-.16-.61.45.45,0,0,1,.61-.17l1.92,1.11a.45.45,0,0,1,.17.61.46.46,0,0,1-.39.23A.49.49,0,0,1,316.38,249.61Zm18.56-1.36a.45.45,0,0,1,.17-.61l1.92-1.1a.44.44,0,1,1,.44.77l-1.92,1.11a.43.43,0,0,1-.22.06A.45.45,0,0,1,334.94,248.25Zm-22.4-.86-1.92-1.11a.45.45,0,0,1-.16-.61.43.43,0,0,1,.61-.16l1.92,1.1a.46.46,0,0,1,.17.62.47.47,0,0,1-.39.22A.46.46,0,0,1,312.54,247.39ZM338.78,246a.44.44,0,0,1,.17-.61l1.92-1.11a.44.44,0,1,1,.44.77l-1.92,1.11a.43.43,0,0,1-.22.06A.47.47,0,0,1,338.78,246Zm-30.08-.87-1.92-1.11a.45.45,0,0,1-.16-.61.44.44,0,0,1,.61-.16l1.92,1.11a.45.45,0,0,1,.17.61.47.47,0,0,1-.39.22A.46.46,0,0,1,308.7,245.17Zm33.92-1.35a.45.45,0,0,1,.17-.61l1.92-1.11a.44.44,0,0,1,.61.16.46.46,0,0,1-.16.62l-1.93,1.1a.35.35,0,0,1-.22.06A.47.47,0,0,1,342.62,243.82ZM304.86,243l-1.92-1.11a.45.45,0,0,1-.16-.61.45.45,0,0,1,.61-.17l1.92,1.11a.43.43,0,0,1,.16.61.43.43,0,0,1-.38.23A.46.46,0,0,1,304.86,243Zm41.6-1.36a.45.45,0,0,1,.17-.61l1.92-1.11a.45.45,0,0,1,.61.17.45.45,0,0,1-.16.61l-1.92,1.11a.49.49,0,0,1-.23.06A.46.46,0,0,1,346.46,241.6ZM301,240.74l-1.92-1.11a.45.45,0,0,1,.45-.78l1.92,1.11a.45.45,0,0,1,.16.62.44.44,0,0,1-.38.22A.46.46,0,0,1,301,240.74Zm49.28-1.35a.46.46,0,0,1,.17-.62l1.92-1.1a.44.44,0,0,1,.61.16.45.45,0,0,1-.16.61l-1.92,1.11a.46.46,0,0,1-.23.06A.47.47,0,0,1,350.3,239.39Zm-53.12-.87-1.92-1.11a.45.45,0,1,1,.45-.77l1.92,1.11a.45.45,0,0,1-.22.83A.46.46,0,0,1,297.18,238.52Zm57-1.35a.43.43,0,0,1,.16-.61l1.92-1.11a.44.44,0,0,1,.61.16.45.45,0,0,1-.16.61l-1.92,1.11a.46.46,0,0,1-.23.06A.44.44,0,0,1,354.15,237.17Zm-60.81-.87-1.92-1.1a.45.45,0,0,1-.16-.62.44.44,0,0,1,.61-.16l1.92,1.11a.45.45,0,0,1-.22.83A.46.46,0,0,1,293.34,236.3ZM358,235a.43.43,0,0,1,.16-.61l1.92-1.11a.45.45,0,0,1,.61.16.46.46,0,0,1-.16.62l-1.92,1.11a.46.46,0,0,1-.23.06A.43.43,0,0,1,358,235Zm-68.49-.86-.61-.36a10,10,0,0,1-1.31-.88.45.45,0,0,1,.56-.7,11.22,11.22,0,0,0,1.19.81l.62.35a.45.45,0,0,1,.16.61.43.43,0,0,1-.39.23A.46.46,0,0,1,289.5,234.09Zm72.33-1.35a.44.44,0,0,1,.15-.61,5,5,0,0,0,1.5-1.35.46.46,0,0,1,.63-.11.45.45,0,0,1,.11.62,6,6,0,0,1-1.77,1.6.44.44,0,0,1-.62-.15ZM286,231.14a4.45,4.45,0,0,1-.77-2.31.45.45,0,0,1,.43-.46.44.44,0,0,1,.46.44,3.57,3.57,0,0,0,.63,1.84.45.45,0,0,1-.14.62.42.42,0,0,1-.24.07A.43.43,0,0,1,286,231.14ZM364.05,229a3.57,3.57,0,0,0-.63-1.84.45.45,0,0,1,.12-.62.46.46,0,0,1,.63.13,4.42,4.42,0,0,1,.77,2.3.45.45,0,0,1-.43.47h0A.46.46,0,0,1,364.05,229Zm-78-1.86a.45.45,0,0,1-.11-.62,5.77,5.77,0,0,1,1.78-1.59.43.43,0,0,1,.61.15.44.44,0,0,1-.15.61,5,5,0,0,0-1.51,1.34.42.42,0,0,1-.36.19A.42.42,0,0,1,286.06,227.11ZM362,225.63a11,11,0,0,0-1.18-.79l-.63-.36a.45.45,0,1,1,.44-.78l.64.37a11.41,11.41,0,0,1,1.28.86.45.45,0,0,1,.08.63.46.46,0,0,1-.36.17A.41.41,0,0,1,362,225.63Zm-72.51-1.24a.45.45,0,0,1,.16-.61l1.92-1.11a.46.46,0,0,1,.62.17.45.45,0,0,1-.17.61l-1.92,1.11a.44.44,0,0,1-.61-.17Zm68.78-1-1.92-1.11a.45.45,0,1,1,.44-.78l1.92,1.11a.45.45,0,0,1,.17.61.46.46,0,0,1-.39.23A.43.43,0,0,1,358.27,223.37Zm-64.94-1.2a.45.45,0,0,1,.16-.61l1.92-1.11a.46.46,0,0,1,.62.17.45.45,0,0,1-.17.61l-1.92,1.11a.46.46,0,0,1-.22.06A.43.43,0,0,1,293.33,222.17Zm61.09-1L352.5,220a.45.45,0,0,1-.16-.61.43.43,0,0,1,.61-.16l1.92,1.1a.46.46,0,0,1,.17.62.47.47,0,0,1-.39.22A.49.49,0,0,1,354.42,221.15ZM297.17,220a.45.45,0,0,1,.16-.61l1.93-1.11a.44.44,0,1,1,.44.77l-1.92,1.11a.46.46,0,0,1-.22.06A.44.44,0,0,1,297.17,220Zm53.41-1-1.92-1.11a.45.45,0,0,1-.16-.61.44.44,0,0,1,.61-.16l1.92,1.11a.44.44,0,0,1,.17.61.47.47,0,0,1-.39.22A.46.46,0,0,1,350.58,218.93ZM301,217.74a.45.45,0,0,1,.17-.61L303.1,216a.44.44,0,1,1,.44.77l-1.92,1.11a.43.43,0,0,1-.22.06A.44.44,0,0,1,301,217.74Zm45.73-1-1.92-1.11a.46.46,0,0,1-.16-.62.45.45,0,0,1,.61-.16l1.92,1.11a.43.43,0,0,1,.16.61.45.45,0,0,1-.38.23A.46.46,0,0,1,346.74,216.72Zm-41.89-1.2a.45.45,0,0,1,.17-.61l1.92-1.11a.45.45,0,0,1,.44.78l-1.92,1.11a.43.43,0,0,1-.22.06A.46.46,0,0,1,304.85,215.52Zm38-1L341,213.39a.45.45,0,0,1,.45-.78l1.92,1.11a.44.44,0,0,1,.16.61.43.43,0,0,1-.38.23A.46.46,0,0,1,342.9,214.5Zm-34.21-1.19a.46.46,0,0,1,.17-.62l1.92-1.1a.43.43,0,0,1,.61.16.45.45,0,0,1-.17.61l-1.92,1.11a.43.43,0,0,1-.22.06A.47.47,0,0,1,308.69,213.31Zm30.37-1-1.92-1.11a.45.45,0,1,1,.45-.77l1.92,1.1a.45.45,0,0,1,.16.62.44.44,0,0,1-.38.22A.46.46,0,0,1,339.06,212.28Zm-26.53-1.19a.44.44,0,0,1,.17-.61l1.92-1.11a.45.45,0,0,1,.45.77l-1.92,1.11a.49.49,0,0,1-.23.06A.47.47,0,0,1,312.53,211.09Zm22.69-1L333.3,209a.45.45,0,0,1,.45-.77l1.92,1.11a.45.45,0,0,1-.22.83A.46.46,0,0,1,335.22,210.06Zm-18.85-1.19a.45.45,0,0,1,.17-.61l1.92-1.11.22.39-.22-.39a.44.44,0,0,1,.6.17.47.47,0,0,1-.17.62L317,209a.4.4,0,0,1-.23.06A.47.47,0,0,1,316.37,208.87Zm15-.94a15.52,15.52,0,0,0-2-.72.45.45,0,1,1,.24-.86,15.42,15.42,0,0,1,2.14.76.45.45,0,0,1-.18.86A.39.39,0,0,1,331.39,207.93Zm-11.1-1.12a.44.44,0,0,1,.31-.55,13.87,13.87,0,0,1,2.24-.46.46.46,0,0,1,.5.39.45.45,0,0,1-.39.5,13.23,13.23,0,0,0-2.1.42.3.3,0,0,1-.13,0A.45.45,0,0,1,320.29,206.81Zm7,0a15.59,15.59,0,0,0-2.15-.18.45.45,0,0,1-.44-.46.44.44,0,0,1,.46-.44,19.13,19.13,0,0,1,2.26.19.45.45,0,0,1-.06.89Z" transform="translate(-229.67 -86.34)"/><path class="cls-53" d="M269.48,284.8a17.23,17.23,0,0,1-2.27-.19.45.45,0,0,1-.38-.5.46.46,0,0,1,.51-.38,17.45,17.45,0,0,0,2.15.17.45.45,0,0,1,.44.46.44.44,0,0,1-.45.44Zm1.77-.5a.46.46,0,0,1,.4-.5,12.09,12.09,0,0,0,2.09-.41.44.44,0,0,1,.56.3.45.45,0,0,1-.3.56,14,14,0,0,1-2.25.44h-.05A.45.45,0,0,1,271.25,284.3Zm-6.26-.16a15.58,15.58,0,0,1-2.15-.77.45.45,0,0,1-.23-.59.46.46,0,0,1,.6-.23,13.77,13.77,0,0,0,2,.73.44.44,0,0,1,.31.55.46.46,0,0,1-.43.33Zm10.55-1a.46.46,0,0,1,.19-.62l1.92-1.11a.45.45,0,0,1,.61.16.44.44,0,0,1-.17.61l-1.95,1.14a.54.54,0,0,1-.21.05A.45.45,0,0,1,275.54,283.18Zm-14.69-.88-1.92-1.11a.44.44,0,1,1,.44-.77l1.92,1.11a.45.45,0,0,1,.17.61.47.47,0,0,1-.39.22A.43.43,0,0,1,260.85,282.3ZM279.4,281a.45.45,0,0,1,.17-.61l1.92-1.11a.45.45,0,0,1,.44.78l-1.92,1.1a.36.36,0,0,1-.22.07A.48.48,0,0,1,279.4,281Zm-22.4-.86L255.08,279a.45.45,0,0,1-.16-.61.45.45,0,0,1,.61-.17l1.92,1.11a.45.45,0,0,1,.17.61.46.46,0,0,1-.39.23A.49.49,0,0,1,257,280.09Zm26.24-1.36a.45.45,0,0,1,.17-.61l1.92-1.11a.45.45,0,0,1,.45.78l-1.93,1.11a.43.43,0,0,1-.22.06A.46.46,0,0,1,283.24,278.73Zm-30.08-.86-1.92-1.11a.45.45,0,0,1-.16-.61.43.43,0,0,1,.61-.16l1.92,1.1a.46.46,0,0,1,.17.62.47.47,0,0,1-.39.22A.49.49,0,0,1,253.16,277.87Zm33.92-1.35a.44.44,0,0,1,.17-.61l1.92-1.11a.44.44,0,0,1,.61.16.45.45,0,0,1-.16.61l-1.92,1.11a.49.49,0,0,1-.23.06A.47.47,0,0,1,287.08,276.52Zm-37.76-.87-1.92-1.11a.45.45,0,0,1-.16-.61.44.44,0,0,1,.61-.16l1.92,1.11a.44.44,0,0,1,.17.61.47.47,0,0,1-.39.22A.49.49,0,0,1,249.32,275.65Zm41.61-1.35a.43.43,0,0,1,.16-.61l1.92-1.11a.45.45,0,0,1,.45.77l-1.92,1.11a.46.46,0,0,1-.23.06A.44.44,0,0,1,290.93,274.3Zm-45.45-.86-1.92-1.11a.46.46,0,0,1-.16-.62.45.45,0,0,1,.61-.16l1.92,1.11a.45.45,0,0,1,.17.61.46.46,0,0,1-.39.23A.46.46,0,0,1,245.48,273.44Zm49.29-1.36a.43.43,0,0,1,.16-.61l1.92-1.11a.45.45,0,0,1,.45.78l-1.92,1.11a.46.46,0,0,1-.23.06A.43.43,0,0,1,294.77,272.08Zm-53.13-.86-1.92-1.11a.45.45,0,0,1,.45-.78l1.92,1.11a.45.45,0,0,1,.16.61.43.43,0,0,1-.38.23A.46.46,0,0,1,241.64,271.22Zm57-1.35a.45.45,0,0,1,.16-.62l1.92-1.1a.45.45,0,0,1,.45.77L299.22,270a.46.46,0,0,1-.23.06A.44.44,0,0,1,298.61,269.87ZM237.8,269l-1.92-1.11a.44.44,0,0,1-.16-.61.43.43,0,0,1,.61-.16l1.92,1.1a.45.45,0,0,1,.16.62.44.44,0,0,1-.38.22A.46.46,0,0,1,237.8,269Zm64.65-1.35a.44.44,0,0,1,.16-.61l1.92-1.11a.45.45,0,0,1,.61.16.44.44,0,0,1-.16.61l-1.92,1.11a.46.46,0,0,1-.23.06A.44.44,0,0,1,302.45,267.65ZM234,266.78l-.61-.35a10,10,0,0,1-1.31-.88.46.46,0,0,1-.07-.63.45.45,0,0,1,.63-.07,10.72,10.72,0,0,0,1.19.8l.62.36a.45.45,0,0,1-.22.83A.46.46,0,0,1,234,266.78Zm72.33-1.34a.45.45,0,0,1,.15-.62,5,5,0,0,0,1.5-1.34.45.45,0,0,1,.74.51,6,6,0,0,1-1.77,1.6.53.53,0,0,1-.24.06A.44.44,0,0,1,306.29,265.44Zm-75.85-1.61a4.42,4.42,0,0,1-.77-2.3.44.44,0,0,1,.43-.46.45.45,0,0,1,.46.43,3.57,3.57,0,0,0,.63,1.84.46.46,0,0,1-.13.62.46.46,0,0,1-.25.08A.45.45,0,0,1,230.44,263.83Zm78.07-2.16a3.57,3.57,0,0,0-.63-1.84.45.45,0,1,1,.75-.49,4.49,4.49,0,0,1,.78,2.3.45.45,0,0,1-.44.46h0A.45.45,0,0,1,308.51,261.67Zm-78-1.86a.46.46,0,0,1-.11-.63,5.9,5.9,0,0,1,1.78-1.59.45.45,0,0,1,.46.77,5,5,0,0,0-1.51,1.34.44.44,0,0,1-.36.19A.5.5,0,0,1,230.52,259.81Zm75.94-1.48a9.69,9.69,0,0,0-1.18-.79l-.63-.37a.44.44,0,1,1,.44-.77l.64.36a10.24,10.24,0,0,1,1.28.87.45.45,0,0,1,.08.63.46.46,0,0,1-.35.17A.48.48,0,0,1,306.46,258.33ZM234,257.09a.45.45,0,0,1,.16-.61l1.93-1.11a.45.45,0,0,1,.61.16.44.44,0,0,1-.17.61l-1.92,1.11a.46.46,0,0,1-.22.06A.44.44,0,0,1,234,257.09Zm68.78-1L300.81,255a.44.44,0,1,1,.44-.77l1.92,1.11a.45.45,0,0,1,.17.61.47.47,0,0,1-.39.22A.43.43,0,0,1,302.73,256.06Zm-64.94-1.19a.45.45,0,0,1,.17-.61l1.92-1.11a.45.45,0,1,1,.44.78L238.4,255a.35.35,0,0,1-.22.06A.46.46,0,0,1,237.79,254.87Zm61.1-1L297,252.74a.45.45,0,0,1-.16-.61.45.45,0,0,1,.61-.17l1.92,1.11a.45.45,0,0,1-.22.84A.43.43,0,0,1,298.89,253.85Zm-57.26-1.2a.45.45,0,0,1,.17-.61l1.92-1.11a.45.45,0,0,1,.44.78l-1.92,1.11a.43.43,0,0,1-.22.06A.45.45,0,0,1,241.63,252.65Zm53.41-1-1.92-1.11a.45.45,0,0,1-.16-.61.45.45,0,0,1,.61-.17l1.92,1.11a.45.45,0,0,1,.17.61.46.46,0,0,1-.39.23A.49.49,0,0,1,295,251.63Zm-49.57-1.19a.46.46,0,0,1,.17-.62l1.92-1.1a.44.44,0,0,1,.61.16.45.45,0,0,1-.16.61l-1.93,1.11a.43.43,0,0,1-.22.06A.46.46,0,0,1,245.47,250.44Zm45.73-1-1.92-1.11a.45.45,0,0,1-.16-.61.44.44,0,0,1,.61-.16l1.92,1.11a.44.44,0,0,1,.17.61.47.47,0,0,1-.39.22A.49.49,0,0,1,291.2,249.41Zm-41.89-1.19a.44.44,0,0,1,.17-.61l1.92-1.11a.45.45,0,0,1,.45.77l-1.92,1.11a.49.49,0,0,1-.23.06A.47.47,0,0,1,249.31,248.22Zm38.05-1-1.92-1.1a.46.46,0,0,1-.16-.62.45.45,0,0,1,.61-.16l1.92,1.11a.45.45,0,0,1,.17.61.47.47,0,0,1-.39.22A.38.38,0,0,1,287.36,247.19ZM253.15,246a.45.45,0,0,1,.17-.61l1.92-1.11a.45.45,0,0,1,.61.17.45.45,0,0,1-.16.61l-1.92,1.11a.49.49,0,0,1-.23.06A.46.46,0,0,1,253.15,246Zm30.37-1-1.92-1.11a.45.45,0,0,1-.16-.61.45.45,0,0,1,.61-.17L284,244.2a.45.45,0,0,1,.17.61.46.46,0,0,1-.39.23A.46.46,0,0,1,283.52,245ZM257,243.78a.45.45,0,0,1,.17-.61l1.92-1.11a.45.45,0,0,1,.61.17.45.45,0,0,1-.16.61L257.61,244a.49.49,0,0,1-.23.06A.46.46,0,0,1,257,243.78Zm22.69-1-1.92-1.11a.45.45,0,0,1-.16-.61.43.43,0,0,1,.61-.16l1.92,1.1a.45.45,0,0,1,.16.62.44.44,0,0,1-.38.22A.46.46,0,0,1,279.68,242.76Zm-18.85-1.19A.44.44,0,0,1,261,241l1.92-1.11.22.38-.22-.38a.42.42,0,0,1,.6.17.45.45,0,0,1-.17.61l-1.9,1.1a.46.46,0,0,1-.23.06A.47.47,0,0,1,260.83,241.57Zm15-.94a13.75,13.75,0,0,0-2-.72.47.47,0,0,1-.32-.56.45.45,0,0,1,.56-.31,15.44,15.44,0,0,1,2.14.77.45.45,0,0,1-.18.86A.58.58,0,0,1,275.85,240.63Zm-11.1-1.12a.45.45,0,0,1,.31-.56,13.87,13.87,0,0,1,2.24-.45.46.46,0,0,1,.5.39.45.45,0,0,1-.39.5,13.23,13.23,0,0,0-2.1.42l-.13,0A.46.46,0,0,1,264.75,239.51Zm7,0a17.3,17.3,0,0,0-2.15-.17.45.45,0,0,1-.44-.46.43.43,0,0,1,.46-.44,19.11,19.11,0,0,1,2.26.18.45.45,0,0,1-.06.9Z" transform="translate(-229.67 -86.34)"/><path class="cls-53" d="M274.58,252.63l2.47,1.44-12.66,7.31a10.87,10.87,0,0,1-5.25,1.47,9.28,9.28,0,0,1-4.91-1.16c-1.51-.88-2.27-1.82-2.29-2.84s.85-2,2.57-3l.11,0,2.39,1.38q-1.68,1-1.86,1.83c-.12.58.2,1.08,1,1.52a4.32,4.32,0,0,0,2.61.43,8,8,0,0,0,3.19-1.08Z" transform="translate(-229.67 -86.34)"/><path class="cls-53" d="M275.35,268.41a2.32,2.32,0,0,0,1.35-1.6,3.39,3.39,0,0,0-1.08-2.25,6.17,6.17,0,0,1-1.91-3.42c-.08-1,.55-1.89,1.91-2.67a9,9,0,0,1,4.95-1.11,10.93,10.93,0,0,1,5.24,1.47c1.66.95,2.47,2,2.45,3.2s-.79,2.19-2.29,3l-.1,0-2.39-1.38c1-.6,1.61-1.24,1.72-1.92s-.31-1.31-1.29-1.87a5.59,5.59,0,0,0-3-.77,5.69,5.69,0,0,0-2.82.76,1.77,1.77,0,0,0-1.1,1.57,4.37,4.37,0,0,0,1.27,2.35,5.14,5.14,0,0,1,1.65,3.34c0,1-.72,1.89-2.1,2.69a8.91,8.91,0,0,1-5,1.13,11.43,11.43,0,0,1-5.25-1.55,5.14,5.14,0,0,1-2.77-3.22q-.37-1.84,2.25-3.29l.1,0,2.39,1.39c-1.22.7-1.79,1.4-1.73,2.11s.6,1.36,1.64,2a5.93,5.93,0,0,0,3,.82A5.57,5.57,0,0,0,275.35,268.41Z" transform="translate(-229.67 -86.34)"/><path class="cls-53" d="M318.28,227l0,.05a8.88,8.88,0,0,1-4.37,1.22,8.29,8.29,0,0,1-4.3-1.15c-1.38-.8-2-1.7-1.92-2.71s1-2,2.62-2.95l3.89-2.24a11,11,0,0,1,5.1-1.53,8.51,8.51,0,0,1,4.66,1.08c1.38.8,2.07,1.63,2.06,2.49s-.73,1.71-2.15,2.56h-.08l-1.86-1.07c1-.6,1.56-1.16,1.65-1.66s-.27-1-1.1-1.47a4.62,4.62,0,0,0-2.85-.53,8.88,8.88,0,0,0-3.44,1.22l-3.92,2.26c-1.22.71-1.93,1.38-2.12,2s.12,1.19.94,1.67a4.41,4.41,0,0,0,2.5.62,6.88,6.88,0,0,0,2.85-1Z" transform="translate(-229.67 -86.34)"/><path class="cls-53" d="M328.14,229l3.31,1.92-1.67,1-3.31-1.91-4.36,2.52-1.92-1.11,4.36-2.52-3.3-1.91,1.67-1,3.31,1.91,4.15-2.4,1.92,1.11Z" transform="translate(-229.67 -86.34)"/><path class="cls-53" d="M338,234.69l3.31,1.91-1.67,1-3.31-1.91L332,238.18l-1.91-1.11,4.36-2.52-3.31-1.91,1.68-1,3.31,1.91,4.15-2.4,1.92,1.11Z" transform="translate(-229.67 -86.34)"/><path class="cls-53" d="M416.2,379.4l0,.06a11.25,11.25,0,0,1-5.54,1.56,10.62,10.62,0,0,1-5.45-1.46c-1.75-1-2.56-2.16-2.44-3.44s1.24-2.53,3.33-3.74l4.93-2.84a13.82,13.82,0,0,1,6.47-1.94,10.7,10.7,0,0,1,5.91,1.37q2.63,1.51,2.61,3.15t-2.73,3.24l-.11,0L420.8,374c1.28-.77,2-1.47,2.1-2.11s-.35-1.26-1.4-1.87a5.82,5.82,0,0,0-3.62-.66,11.19,11.19,0,0,0-4.36,1.54l-5,2.87c-1.55.9-2.45,1.74-2.69,2.55s.15,1.52,1.2,2.12a5.46,5.46,0,0,0,3.16.79,8.73,8.73,0,0,0,3.62-1.23Z" transform="translate(-229.67 -86.34)"/><path class="cls-53" d="M424,384.35,421.64,383l-5.78,2.43-1.71-1,5.79-2.43-2.42-1.4,1.58-.91,2.67,1.53L427,379l-2.59-1.5,1.59-.91,2.83,1.63,5.88-2.46,1.7,1-5.87,2.47,2.35,1.36,5.88-2.46,1.7,1-5.87,2.47,2.19,1.27-1.58.92-2.45-1.42-5.22,2.2,2.38,1.38-1.58.91-2.63-1.52-5.78,2.44-1.71-1Zm-.53-2.13,2.36,1.36,5.22-2.2L428.68,380Z" transform="translate(-229.67 -86.34)"/><path class="cls-53" d="M348.8,338.18l-5.62,3.25-2-1.15,14.22-8.21,4.7,2.71c1.34.77,2,1.61,2,2.5s-.69,1.72-2,2.46a8.64,8.64,0,0,1-4.26,1.14,8.27,8.27,0,0,1-4.32-1.14Zm1.51-.86,2.7,1.56a4.17,4.17,0,0,0,2.5.53,6.11,6.11,0,0,0,2.56-.81,2.82,2.82,0,0,0,1.44-1.5c.15-.53-.15-1-.91-1.45l-2.71-1.56Z" transform="translate(-229.67 -86.34)"/><path class="cls-53" d="M361.77,352.17l-2-1.15,6.28-3.62-5.49-3.17-6.28,3.62-2-1.15,14.22-8.21,2,1.15-6.43,3.72,5.48,3.17,6.44-3.72,2,1.15Z" transform="translate(-229.67 -86.34)"/><path class="cls-53" d="M372.17,351.68l-5.62,3.24-2-1.15,14.22-8.21,4.7,2.71c1.34.78,2,1.61,2,2.5s-.69,1.72-2,2.46a8.46,8.46,0,0,1-4.26,1.14,8.26,8.26,0,0,1-4.32-1.13Zm1.51-.87,2.7,1.56a4.17,4.17,0,0,0,2.5.53,6.15,6.15,0,0,0,2.56-.81,2.82,2.82,0,0,0,1.44-1.5c.15-.52-.15-1-.91-1.45l-2.71-1.56Z" transform="translate(-229.67 -86.34)"/><path class="cls-53" d="M524.43,375.31l0,.05a9.23,9.23,0,0,1-4.6,1.29,8.75,8.75,0,0,1-4.53-1.21c-1.45-.84-2.13-1.79-2-2.86s1-2.1,2.76-3.1l4.1-2.37a11.44,11.44,0,0,1,5.37-1.61,9,9,0,0,1,4.92,1.14c1.45.84,2.17,1.71,2.17,2.62s-.77,1.81-2.27,2.7h-.09l-2-1.13c1.06-.63,1.64-1.22,1.75-1.75s-.29-1-1.16-1.55a4.82,4.82,0,0,0-3-.55,9.29,9.29,0,0,0-3.63,1.28l-4.13,2.39c-1.29.74-2,1.44-2.23,2.12s.12,1.26,1,1.76a4.57,4.57,0,0,0,2.62.65,7.06,7.06,0,0,0,3-1Z" transform="translate(-229.67 -86.34)"/><path class="cls-53" d="M532.74,381c.7-.4,1.07-.84,1.12-1.33a2.79,2.79,0,0,0-.89-1.87,5.14,5.14,0,0,1-1.59-2.84q-.11-1.24,1.59-2.22a7.51,7.51,0,0,1,4.12-.93,9.18,9.18,0,0,1,4.35,1.23c1.38.79,2,1.68,2,2.66a3,3,0,0,1-1.9,2.5l-.08,0-2-1.14c.86-.5,1.34-1,1.43-1.6s-.26-1.09-1.07-1.56a4.88,4.88,0,0,0-4.8,0,1.46,1.46,0,0,0-.91,1.3,3.66,3.66,0,0,0,1.05,2,4.3,4.3,0,0,1,1.38,2.77c0,.83-.6,1.57-1.75,2.24a7.42,7.42,0,0,1-4.14.94,9.4,9.4,0,0,1-4.36-1.29,4.22,4.22,0,0,1-2.3-2.68q-.31-1.53,1.86-2.73l.09,0,2,1.14c-1,.59-1.49,1.17-1.44,1.76s.51,1.13,1.37,1.63a4.86,4.86,0,0,0,2.47.68A4.55,4.55,0,0,0,532.74,381Z" transform="translate(-229.67 -86.34)"/><path class="cls-53" d="M543.83,387.38c.69-.4,1.07-.84,1.12-1.33a2.81,2.81,0,0,0-.9-1.87,5.17,5.17,0,0,1-1.58-2.84c-.07-.83.46-1.57,1.58-2.22a7.62,7.62,0,0,1,4.12-.93,9.18,9.18,0,0,1,4.36,1.23c1.37.79,2.05,1.68,2,2.66a3.05,3.05,0,0,1-1.9,2.5l-.08,0-2-1.15c.86-.5,1.34-1,1.43-1.6s-.26-1.09-1.07-1.56a4.88,4.88,0,0,0-4.8,0,1.46,1.46,0,0,0-.91,1.3,3.59,3.59,0,0,0,1,2,4.23,4.23,0,0,1,1.37,2.78c0,.82-.6,1.57-1.75,2.23a7.41,7.41,0,0,1-4.13.94,9.4,9.4,0,0,1-4.36-1.29,4.19,4.19,0,0,1-2.3-2.68q-.32-1.53,1.86-2.73l.08,0,2,1.14c-1,.59-1.49,1.17-1.44,1.76s.5,1.13,1.37,1.63a4.83,4.83,0,0,0,2.46.68A4.59,4.59,0,0,0,543.83,387.38Z" transform="translate(-229.67 -86.34)"/><path class="cls-53" d="M575.41,336.88l-4.76,2.74-1.54-.89,11-6.37,3.45,2c1,.61,1.6,1.23,1.63,1.88s-.45,1.25-1.46,1.83a5,5,0,0,1-1.91.64,6.32,6.32,0,0,1-2.16-.08,1.06,1.06,0,0,1,.25,1.24,3.12,3.12,0,0,1-1.29,1.17l-1,.56a4.13,4.13,0,0,0-.84.6.87.87,0,0,0-.33.6l-.18.1-1.59-.92q0-.28.42-.63a8.25,8.25,0,0,1,1-.65l.93-.54c.62-.36,1-.72,1-1.09s-.13-.7-.62-1Zm1.17-.68,1.83,1.06a3.49,3.49,0,0,0,1.88.51,4.14,4.14,0,0,0,1.88-.57c.63-.37,1-.74,1-1.1s-.21-.73-.79-1.07l-1.91-1.1Z" transform="translate(-229.67 -86.34)"/><path class="cls-53" d="M595.89,341.45l-7.65,4.42a6.85,6.85,0,0,1-3.61.95,7.16,7.16,0,0,1-3.5-1c-1-.6-1.59-1.27-1.62-2s.52-1.42,1.66-2.08l7.64-4.41,1.53.88-7.64,4.42c-.79.45-1.2.9-1.25,1.33s.24.83.85,1.18a4,4,0,0,0,2.06.53,5,5,0,0,0,2.34-.73l7.65-4.42Z" transform="translate(-229.67 -86.34)"/><path class="cls-53" d="M586.81,349l11-6.37,3.09,1.79c1.05.6,1.62,1.22,1.71,1.84s-.36,1.22-1.35,1.8a4.66,4.66,0,0,1-1.78.57,5.86,5.86,0,0,1-2-.13,1.18,1.18,0,0,1,.45,1.34,2.61,2.61,0,0,1-1.25,1.27,6,6,0,0,1-3.18.85,6.71,6.71,0,0,1-3.19-.92Zm6.69-2.08-4,2.3,2,1.14a3.26,3.26,0,0,0,1.78.45,4.18,4.18,0,0,0,1.89-.58,2.26,2.26,0,0,0,1.1-1.08c.11-.35-.1-.69-.63-1Zm1.11-.64,1.69,1a3.21,3.21,0,0,0,1.66.42,3.6,3.6,0,0,0,1.76-.51c.61-.36.92-.71.92-1.06s-.29-.69-.88-1l-1.54-.89Z" transform="translate(-229.67 -86.34)"/><path class="cls-53" d="M603.71,352.16l0,0,7.63-1.78,1.71,1-10.32,2.19-4,2.3-1.54-.89,4.06-2.35,3.74-5.88,1.73,1Z" transform="translate(-229.67 -86.34)"/></g><g class="cls-54"><path class="cls-55" d="M539.75,121.9a11.07,11.07,0,0,1-2.78-3.62,9.27,9.27,0,0,1-.82-3.81v-2.34a4.54,4.54,0,0,0-.44-2,3.31,3.31,0,0,0-1.33-1.4V106.4c.6.35,1,.4,1.33.15a2,2,0,0,0,.44-1.53v-2.33a4.12,4.12,0,0,1,.82-2.86c.55-.6,1.48-.73,2.78-.4l.56,2.12a1,1,0,0,0-1.2.58,4.84,4.84,0,0,0-.35,2.06v2.33a3.34,3.34,0,0,1-.45,1.87,1.5,1.5,0,0,1-1.34.66,7.33,7.33,0,0,1,1.34,2.24,6.57,6.57,0,0,1,.45,2.35V116a8.28,8.28,0,0,0,.35,2.47,4.6,4.6,0,0,0,1.2,2Z" transform="translate(-229.67 -86.34)"/><path class="cls-55" d="M590.77,147.42a1,1,0,0,0,1.2-.58,4.86,4.86,0,0,0,.35-2.07v-2.32a3.14,3.14,0,0,1,.46-1.85,1.53,1.53,0,0,1,1.4-.63,7.51,7.51,0,0,1-1.4-2.25,6.5,6.5,0,0,1-.46-2.39V133a8.38,8.38,0,0,0-.35-2.47,4.72,4.72,0,0,0-1.2-2l.56-1.48a11,11,0,0,1,2.77,3.61,9.09,9.09,0,0,1,.83,3.81v2.33a4.64,4.64,0,0,0,.43,2,3.3,3.3,0,0,0,1.35,1.4v2.31q-.91-.53-1.35-.15a2.06,2.06,0,0,0-.43,1.52v2.33a4.07,4.07,0,0,1-.83,2.86c-.55.6-1.48.74-2.77.41Z" transform="translate(-229.67 -86.34)"/></g><g class="cls-56"><path class="cls-57" d="M472.89,378.32a26.82,26.82,0,0,1-13.38-3.22L317.88,293.33c-4.88-2.82-7.68-7.28-7.68-12.23,0-5.43,3.37-10.49,9.24-13.88l80.38-46.4a32.89,32.89,0,0,1,16.25-4.13,26.78,26.78,0,0,1,13.37,3.22l141.64,81.78c4.88,2.81,7.67,7.27,7.67,12.22,0,5.43-3.37,10.49-9.24,13.88L489.13,374.2A33,33,0,0,1,472.89,378.32Z" transform="translate(-229.67 -86.34)"/><path class="cls-58" d="M400.18,221.43a32.09,32.09,0,0,1,16.19-4,31.19,31.19,0,0,1,6.64.81,26.42,26.42,0,0,1,6.62,2.61l141.1,81.46c4.85,2.8,7.38,7.24,7.09,12.07a14.64,14.64,0,0,1-.85,3.9c-1.23,3.45-4.73,7.12-8.69,9.41L489,373.43a30.69,30.69,0,0,1-3.45,1.7,33.6,33.6,0,0,1-12.53,2.48,26.19,26.19,0,0,1-13.19-3.12L318.23,292.71c-4.86-2.81-7.38-7.26-7.06-12.09a14.47,14.47,0,0,1,.66-3.37c1.14-3.65,4.76-7.56,8.92-10Z" transform="translate(-229.67 -86.34)"/><path class="cls-59" d="M400.53,222a31.52,31.52,0,0,1,16.15-3.89,27.44,27.44,0,0,1,13.13,3.61l140.56,81.15c4.83,2.79,7.1,7.21,6.51,11.92a15.68,15.68,0,0,1-1,3.72c-1.2,3.07-5.22,7-8.79,9l-78.1,45.09a34.53,34.53,0,0,1-3.39,1.69,33.14,33.14,0,0,1-12.32,2.54,25.63,25.63,0,0,1-13-3L318.58,292.1c-4.85-2.8-7.09-7.25-6.45-12a16.14,16.14,0,0,1,.86-3.22c1.13-3.25,5.32-7.4,9.06-9.57Z" transform="translate(-229.67 -86.34)"/><path class="cls-60" d="M400.89,222.66a30.78,30.78,0,0,1,16.1-3.78,30.23,30.23,0,0,1,6.53,1,35.62,35.62,0,0,1,6.47,2.78l140,80.84c4.8,2.77,6.82,7.17,5.92,11.75a17.44,17.44,0,0,1-1.24,3.55c-1.16,2.69-5.72,6.81-8.9,8.64l-77,44.44c-.8.46-2.44,1.31-3.32,1.69a32.72,32.72,0,0,1-12.12,2.58,25.06,25.06,0,0,1-12.82-2.92L318.94,291.48c-4.84-2.79-6.82-7.23-5.85-11.83a20,20,0,0,1,1.05-3c1.1-2.86,5.89-7.26,9.22-9.18Z" transform="translate(-229.67 -86.34)"/><path class="cls-61" d="M401.24,223.27a29,29,0,0,1,22.53-2.51,42.35,42.35,0,0,1,6.41,2.85l139.48,80.53c4.79,2.76,6.56,7.13,5.35,11.6a22.13,22.13,0,0,1-1.45,3.36c-1.09,2.32-6.22,6.67-9,8.27l-75.82,43.77c-.7.41-2.49,1.35-3.27,1.69a32.47,32.47,0,0,1-11.91,2.64,24.61,24.61,0,0,1-12.64-2.82L319.29,290.87c-4.83-2.79-6.55-7.21-5.23-11.7a26.48,26.48,0,0,1,1.23-2.9c1-2.46,6.46-7.11,9.38-8.79Z" transform="translate(-229.67 -86.34)"/><path class="cls-62" d="M401.6,223.88A28,28,0,0,1,424,221.6a49.09,49.09,0,0,1,6.34,2.94l138.95,80.21c4.76,2.75,6.3,7.1,4.76,11.45a28.36,28.36,0,0,1-1.64,3.18c-1,1.95-6.72,6.51-9.1,7.89l-74.68,43.11c-.6.35-2.54,1.39-3.2,1.68a31.86,31.86,0,0,1-11.7,2.69A23.82,23.82,0,0,1,461.29,372L319.65,290.26c-4.82-2.78-6.3-7.19-4.63-11.57.36-.94,1-1.77,1.42-2.75,1-2.08,7-6.95,9.53-8.39Z" transform="translate(-229.67 -86.34)"/><path class="cls-63" d="M402,224.5a27.06,27.06,0,0,1,22.33-2.05,63.65,63.65,0,0,1,6.27,3L569,305.37c4.74,2.73,6.06,7.05,4.18,11.29a12,12,0,0,1-1.84,3c-.56,1.74-7.21,6.37-9.2,7.51l-73.53,42.46c-.5.29-2.6,1.42-3.15,1.67A31.16,31.16,0,0,1,473.92,374a23.3,23.3,0,0,1-12.28-2.62L320,289.64c-4.8-2.77-6.05-7.17-4-11.44a12.58,12.58,0,0,1,1.61-2.59c.51-1.84,7.61-6.8,9.69-8Z" transform="translate(-229.67 -86.34)"/><path class="cls-64" d="M402.31,225.11a26.22,26.22,0,0,1,22.22-1.82c.87.28,5.49,2.68,6.2,3.1L568.6,306c4.72,2.73,5.82,7,3.6,11.14a12.76,12.76,0,0,1-2,2.81c-.46,1.39-7.72,6.21-9.3,7.13l-72.4,41.79c-.4.24-2.65,1.47-3.08,1.67a30.81,30.81,0,0,1-11.29,2.8A22.67,22.67,0,0,1,462,370.8L320.36,289c-4.8-2.77-5.82-7.16-3.41-11.31a12.43,12.43,0,0,1,1.79-2.43c.41-1.48,8.18-6.65,9.84-7.61Z" transform="translate(-229.67 -86.34)"/><path class="cls-65" d="M402.66,225.73a27.62,27.62,0,0,1,15.87-3.21,28.15,28.15,0,0,1,6.25,1.61c.65.22,5.6,2.87,6.14,3.18L568.24,306.6c4.7,2.71,5.59,7,3,11a12.58,12.58,0,0,1-2.24,2.64c-.34,1-8.21,6.05-9.4,6.74l-71.25,41.14c-.3.17-2.7,1.51-3,1.66a30.32,30.32,0,0,1-11.08,2.86,22.17,22.17,0,0,1-11.91-2.42L320.71,288.42c-4.78-2.76-5.59-7.16-2.8-11.18a12.93,12.93,0,0,1,2-2.28c.31-1.11,8.75-6.5,10-7.22Z" transform="translate(-229.67 -86.34)"/><path class="cls-66" d="M403,226.34a27,27,0,0,1,15.82-3.09A27.35,27.35,0,0,1,425,225c.43.15,5.7,3.05,6.06,3.25l136.79,79c4.67,2.7,5.37,7,2.43,10.82a12.83,12.83,0,0,1-2.44,2.45c-.22.7-8.7,5.91-9.5,6.37l-70.11,40.48c-.2.11-2.75,1.55-3,1.65a29.68,29.68,0,0,1-10.87,2.91,21.64,21.64,0,0,1-11.73-2.31L321.07,287.8c-4.77-2.75-5.38-7.16-2.19-11.05a13.6,13.6,0,0,1,2.16-2.12c.2-.74,9.32-6.34,10.15-6.82Z" transform="translate(-229.67 -86.34)"/><path class="cls-67" d="M403.37,227a26.47,26.47,0,0,1,15.77-3,27.18,27.18,0,0,1,6.15,1.84c.22.08,5.82,3.24,6,3.34l136.25,78.66c4.64,2.69,5.15,7,1.85,10.67a14,14,0,0,1-2.64,2.27c-.11.35-9.21,5.75-9.6,6l-69,39.82c-.1.06-2.8,1.6-2.91,1.65a29.36,29.36,0,0,1-10.67,3A21,21,0,0,1,463.06,369L321.42,287.19c-4.76-2.75-5.17-7.18-1.58-10.92a14.3,14.3,0,0,1,2.35-2c.1-.37,9.89-6.19,10.31-6.43Z" transform="translate(-229.67 -86.34)"/><path d="M463.41,368.35,321.77,286.57c-5.59-3.22-4.89-8.87,1.57-12.59l80.38-46.41c6.46-3.73,16.23-4.14,21.82-.91l141.64,81.78c5.59,3.23,4.89,8.87-1.57,12.6l-80.38,46.4C478.77,371.17,469,371.58,463.41,368.35Z" transform="translate(-229.67 -86.34)"/></g><path class="cls-68" d="M463.41,368.22,321.77,286.44c-2.49-1.43-3.73-3.35-3.77-5.37v-7c0-2.45,1.85,1.8,5.34-.21l80.38-46.41c6.46-3.73,16.23-4.14,21.82-.91l141.64,81.78c1.87,1.08,3.22-3.5,3.71-2.05.16.49.06,6.91.07,7.41,0,2.51-1.76,5.17-5.35,7.24l-80.38,46.4C478.77,371,469,371.45,463.41,368.22Z" transform="translate(-229.67 -86.34)"/><path class="cls-69" d="M463.41,361.33,321.77,279.56c-5.59-3.23-4.89-8.87,1.57-12.6l80.38-46.41c6.46-3.73,16.23-4.13,21.82-.9l141.64,81.77c5.59,3.23,4.89,8.87-1.57,12.6l-80.38,46.41C478.77,364.16,469,364.56,463.41,361.33Z" transform="translate(-229.67 -86.34)"/><path class="cls-70" d="M570.94,317.44c0,2.48-1.79,5.09-5.33,7.13L485.23,371c-6.46,3.73-16.23,4.14-21.82.91L321.77,290.1c-2.7-1.56-3.92-3.68-3.74-5.88a2,2,0,0,0,0,.38v7c0,2,1.28,3.93,3.77,5.37l141.64,81.78c5.59,3.23,15.36,2.82,21.82-.91l80.38-46.41c3.59-2.07,5.4-4.72,5.35-7.23C571,323.79,571,319.17,570.94,317.44Z" transform="translate(-229.67 -86.34)"/><path class="cls-71" d="M472.89,360.68a16.52,16.52,0,0,1-8.06-1.8L323.19,277.11c-.88-.51-2.36-1.58-2.36-3s1.46-3.26,3.93-4.68L405.14,223a22.45,22.45,0,0,1,10.93-2.7,16.52,16.52,0,0,1,8.06,1.8l141.64,81.77c.88.51,2.36,1.58,2.36,3s-1.47,3.26-3.93,4.68L483.82,358A22.48,22.48,0,0,1,472.89,360.68Z" transform="translate(-229.67 -86.34)"/><path class="cls-72" d="M565.61,312.85l-80.38,46.41c-6.46,3.73-16.23,4.13-21.82.9L321.77,278.39c-2.32-1.34-3.54-3.1-3.73-5-.29,2.29.93,4.51,3.73,6.13l141.64,81.77c5.59,3.23,15.36,2.83,21.82-.9L565.61,314c3.78-2.18,5.58-5,5.3-7.64C570.63,308.65,568.84,311,565.61,312.85Z" transform="translate(-229.67 -86.34)"/><ellipse class="cls-73" cx="423.53" cy="256.46" rx="35.36" ry="20.88" transform="translate(-290.06 65.36) rotate(-18.98)"/><path class="cls-74" d="M429.25,327.87l-43.73-25.18c-2-1.15-1.74-3.16.56-4.49l22.16-12.88c2.3-1.33,5.78-1.47,7.78-.32l43.72,25.17c2,1.16,1.74,3.17-.56,4.5L437,327.54C434.73,328.87,431.24,329,429.25,327.87Z" transform="translate(-229.67 -86.34)"/><path class="cls-75" d="M564.94,300.33,428.47,221.5c-5.28-3.05-9.57-11.24-9.57-18.28V96.16c0-7,4.29-10.28,9.57-7.23l136.47,78.84c5.28,3,9.56,11.23,9.56,18.28V293.1C574.5,300.15,570.22,303.38,564.94,300.33Z" transform="translate(-229.67 -86.34)"/><path class="cls-76" d="M568.74,299.37a5.65,5.65,0,0,1-2.75-.87L429.53,219.67c-4.62-2.67-8.51-10.2-8.51-16.45V96.16c0-2.89,1-6.26,3.65-6.26a5.63,5.63,0,0,1,2.74.86L563.88,169.6c4.61,2.66,8.51,10.19,8.51,16.45V293.1C572.39,296,571.43,299.37,568.74,299.37Z" transform="translate(-229.67 -86.34)"/><path class="cls-77" d="M566.17,294.83l-135-78c-4.25-2.71-6.88-8.11-6.88-13.63V95.64a1.69,1.69,0,0,1,2.55-1.46l.3.18,135.12,78.06c5.06,2.92,6.88,8.1,6.88,13.63V293.37a1.83,1.83,0,0,1-2.74,1.59Z" transform="translate(-229.67 -86.34)"/><path class="cls-78" d="M562.25,172.42,427.13,94.36l-.3-.18a1.69,1.69,0,0,0-2.55,1.46V203.22c0,5.52,2.63,10.92,6.88,13.63l135,78,.22.13a1.83,1.83,0,0,0,2.74-1.59V186.05C569.13,180.52,567.31,175.34,562.25,172.42Zm5.81,121a.76.76,0,0,1-.76.76.86.86,0,0,1-.38-.1L431.69,215.92c-3.83-2.45-6.34-7.44-6.34-12.7V95.64a.62.62,0,0,1,.94-.53l135.42,78.24c5.25,3,6.35,8.57,6.35,12.7Z" transform="translate(-229.67 -86.34)"/><path class="cls-79" d="M567.65,166.33,431.18,87.49a6.45,6.45,0,0,0-5.6-.82c-.2.08-2.87,1.49-3.05,1.6h0c1.63-.79,3.7-.64,6,.66l136.47,78.84c5.28,3,9.56,11.23,9.56,18.28V293.1c0,4.4-1.67,7.31-4.2,8.14a1.57,1.57,0,0,0,.83-.29c.13-.07,3-1.7,3.14-1.78,1.81-1.27,2.94-3.89,2.94-7.51v-107C577.21,177.56,572.93,169.38,567.65,166.33Z" transform="translate(-229.67 -86.34)"/><path class="cls-80" d="M565.4,167.54,428.93,88.7c-2.17-1.25-4.16-1.43-5.76-.73a7,7,0,0,1,4.61,1.08l136.47,78.83c5.28,3.05,9.56,11.24,9.56,18.28V293.22c0,4.15-1.49,7-3.8,8,3-.47,5-3.5,5-8.32v-107C575,178.77,570.68,170.59,565.4,167.54Z" transform="translate(-229.67 -86.34)"/><ellipse class="cls-81" cx="572.91" cy="175.68" rx="6.84" ry="10.31" transform="translate(-253.44 144.62) rotate(-22.34)"/><path class="cls-82" d="M478.62,309l-69.39-40c-2.3-1.33-2-3.65.64-5.18l23-13.57c2.65-1.53,6.67-1.69,9-.37l69.79,39.78c2.3,1.32,2,3.64-.64,5.17L487.58,308.6C484.93,310.13,480.91,310.3,478.62,309Z" transform="translate(-229.67 -86.34)"/><path class="cls-83" d="M449.4,256.75l-.88-2.47h0a2.46,2.46,0,0,0-1.31-1.58L440.82,249a7.24,7.24,0,0,0-6.54,0L428,252.66a2.93,2.93,0,0,0-1.33,1.77l-.86,2.28a2.27,2.27,0,0,0,1.14,3.22L434,264a8.06,8.06,0,0,0,7.27,0l7-4.07C449.8,259.1,450,258.13,449.4,256.75Z" transform="translate(-229.67 -86.34)"/><path class="cls-84" d="M428.32,256.37l6.14,3.54a7,7,0,0,0,6.3,0l6.11-3.53c1.73-1,1.72-2.63,0-3.63l-6.15-3.55a6.94,6.94,0,0,0-6.29,0l-6.11,3.52C426.57,253.73,426.58,255.36,428.32,256.37Z" transform="translate(-229.67 -86.34)"/><path class="cls-85" d="M464.93,265.33l-.88-2.47h0a2.52,2.52,0,0,0-1.32-1.59l-6.37-3.68a7.21,7.21,0,0,0-6.54,0l-6.34,3.66a3,3,0,0,0-1.33,1.77l-.86,2.27a2.29,2.29,0,0,0,1.14,3.23l7.09,4.09a8,8,0,0,0,7.26,0l7.05-4.06A2.2,2.2,0,0,0,464.93,265.33Z" transform="translate(-229.67 -86.34)"/><path class="cls-86" d="M443.85,264.94l6.15,3.55a6.94,6.94,0,0,0,6.29,0L462.4,265c1.73-1,1.72-2.63,0-3.64l-6.14-3.55a7,7,0,0,0-6.3,0l-6.11,3.53C442.1,262.31,442.11,263.93,443.85,264.94Z" transform="translate(-229.67 -86.34)"/><path class="cls-87" d="M480.46,273.9l-.88-2.47h0a2.5,2.5,0,0,0-1.31-1.59l-6.38-3.68a7.24,7.24,0,0,0-6.54,0L459,269.81a2.91,2.91,0,0,0-1.32,1.77l-.87,2.28a2.28,2.28,0,0,0,1.14,3.22l7.09,4.09a8.06,8.06,0,0,0,7.27,0l7-4.07A2.2,2.2,0,0,0,480.46,273.9Z" transform="translate(-229.67 -86.34)"/><path class="cls-88" d="M459.39,273.51l6.14,3.55a7,7,0,0,0,6.3,0l6.1-3.52c1.73-1,1.73-2.63,0-3.64l-6.14-3.54a7,7,0,0,0-6.3,0l-6.1,3.53C457.63,270.88,457.64,272.51,459.39,273.51Z" transform="translate(-229.67 -86.34)"/><path class="cls-89" d="M496,282.47l-.88-2.47h0a2.46,2.46,0,0,0-1.31-1.58l-6.38-3.69a7.24,7.24,0,0,0-6.54,0l-6.34,3.66a3,3,0,0,0-1.32,1.77l-.87,2.28a2.29,2.29,0,0,0,1.14,3.22l7.09,4.1a8.06,8.06,0,0,0,7.27,0l7-4.07C496.4,284.82,496.59,283.85,496,282.47Z" transform="translate(-229.67 -86.34)"/><path class="cls-90" d="M474.92,282.09l6.14,3.54a7,7,0,0,0,6.3,0l6.1-3.53c1.74-1,1.73-2.63,0-3.63l-6.14-3.55a7,7,0,0,0-6.3,0l-6.1,3.52C473.17,279.45,473.17,281.08,474.92,282.09Z" transform="translate(-229.67 -86.34)"/><path class="cls-91" d="M435.73,253.47l-.18-.07-.05,0,.13.11,3,3.85-2,1.16-3.92-5.83,1.63-.94,10.1,2.26-2,1.16Z" transform="translate(-229.67 -86.34)"/><path class="cls-91" d="M455.3,265.27a6.59,6.59,0,0,1-3.1,1,4.9,4.9,0,0,1-2.75-.64c-.82-.47-1.19-1-1.12-1.6s.63-1.19,1.67-1.79l1.84-1.06a6.83,6.83,0,0,1,3.1-1,5,5,0,0,1,2.77.64c.81.47,1.18,1,1.11,1.6s-.64,1.19-1.68,1.79Zm.7-2c.66-.38,1-.72,1.13-1s-.07-.59-.5-.84a2.35,2.35,0,0,0-1.44-.28,4.45,4.45,0,0,0-1.79.65l-2.24,1.29c-.66.38-1,.73-1.13,1s.07.59.49.84a2.29,2.29,0,0,0,1.45.28,4.53,4.53,0,0,0,1.8-.66Z" transform="translate(-229.67 -86.34)"/><path class="cls-91" d="M465.71,274.54l-1.35-.78,6.76-3.9-1.64-.95,1-.57,3.28,1.56Z" transform="translate(-229.67 -86.34)"/><path class="cls-91" d="M483.15,277.58l2-1.14,4.14,6-1.63.93-10.32-2.39,2-1.14,7,1.83.17.08.05,0-.12-.11Z" transform="translate(-229.67 -86.34)"/><path class="cls-92" d="M479.36,291.14l-.88-2.47h0a2.48,2.48,0,0,0-1.32-1.58l-51-29.5a7.21,7.21,0,0,0-6.54,0l-6.34,3.66A2.91,2.91,0,0,0,412,263l-.87,2.27a2.29,2.29,0,0,0,1.14,3.23L464,298.41a8,8,0,0,0,7.26,0l7.05-4.07A2.2,2.2,0,0,0,479.36,291.14Z" transform="translate(-229.67 -86.34)"/><path class="cls-93" d="M413.7,264.94l50.73,29.36a6.94,6.94,0,0,0,6.29,0l6.11-3.53c1.73-1,1.72-2.63,0-3.63l-50.73-29.37a7,7,0,0,0-6.3,0l-6.1,3.53C411.94,262.31,412,263.93,413.7,264.94Z" transform="translate(-229.67 -86.34)"/><path class="cls-94" d="M511.53,290.94l-.88-2.46h0a2.45,2.45,0,0,0-1.31-1.59L503,283.21a7.19,7.19,0,0,0-6.53,0l-22.67,12.94a3,3,0,0,0-1.33,1.77l-.86,2.28a2.28,2.28,0,0,0,1.14,3.22l7.09,4.1a8,8,0,0,0,7.26,0l23.37-13.36A2.2,2.2,0,0,0,511.53,290.94Z" transform="translate(-229.67 -86.34)"/><path class="cls-95" d="M474.12,299.85l6.15,3.55a7,7,0,0,0,6.29,0L509,290.59c1.73-1,1.72-2.62,0-3.63l-6.15-3.55a6.94,6.94,0,0,0-6.29,0L474.1,296.21C472.37,297.21,472.38,298.84,474.12,299.85Z" transform="translate(-229.67 -86.34)"/><path class="cls-91" d="M488.51,291.67l-1.25-.72-.9.51,1.45.84-.38.22-1.93-1.11,2.85-1.64,1.91,1.1-.38.22-1.44-.83-.8.47,1.25.72Z" transform="translate(-229.67 -86.34)"/><path class="cls-91" d="M490.32,291.75l-.28.19a1.73,1.73,0,0,1,.51,0,1.09,1.09,0,0,1,.45.15c.22.13.33.27.32.41s-.16.31-.44.47l-1.33.77-.47-.28,1.32-.76c.16-.09.24-.18.24-.25s-.07-.16-.2-.24a1,1,0,0,0-.31-.11,1.37,1.37,0,0,0-.35,0l-1.53.88-.48-.27,2.11-1.22Z" transform="translate(-229.67 -86.34)"/><path class="cls-91" d="M493.27,292.86l-.51.3.38.22-.35.2-.38-.22-1.17.68c-.09,0-.13.09-.13.14s0,.08.09.11l.09,0,.09,0-.3.23a.84.84,0,0,1-.2,0,.82.82,0,0,1-.19-.09c-.18-.1-.26-.21-.26-.33s.11-.23.33-.36l1.17-.67-.32-.19.35-.2.32.18.51-.29Z" transform="translate(-229.67 -86.34)"/><path class="cls-91" d="M492.32,295.39c-.3-.17-.44-.37-.43-.58a.8.8,0,0,1,.49-.59l.08-.05a2.2,2.2,0,0,1,1-.29,1.86,1.86,0,0,1,1,.21c.28.17.42.35.4.53s-.18.37-.47.54l-.28.16-1.32-.77h0a.5.5,0,0,0-.26.32c0,.11.06.22.22.31a1.54,1.54,0,0,0,.38.16,2.18,2.18,0,0,0,.4.08l-.16.27a3.43,3.43,0,0,1-.5-.08A2.24,2.24,0,0,1,492.32,295.39Zm1.76-1.08a.85.85,0,0,0-.43-.08,1.46,1.46,0,0,0-.5.12h0l.85.49.05,0c.13-.08.21-.16.22-.25S494.22,294.4,494.08,294.31Z" transform="translate(-229.67 -86.34)"/><path class="cls-91" d="M496.32,295.71l-.19-.12a.67.67,0,0,0-.29-.1.86.86,0,0,0-.32,0l-1.46.85-.48-.28,2.11-1.22.44.25-.28.2a1.84,1.84,0,0,1,.46,0,.94.94,0,0,1,.39.12.18.18,0,0,1,.07.05.12.12,0,0,1,.05.05Z" transform="translate(-229.67 -86.34)"/><polygon class="cls-96" points="323.29 167.5 285.62 145.75 285.62 125.77 323.29 147.51 323.29 167.5"/><polygon class="cls-97" points="233.36 115.91 195.69 94.16 195.69 74.18 233.36 95.93 233.36 115.91"/><path class="cls-98" d="M511.89,165.31l-31-17.92c-2.65-1.53-4.79-5.63-4.79-9.16h0c0-3.53,2.14-5.15,4.79-3.62l31,17.92c2.65,1.53,4.79,5.63,4.79,9.16h0C516.68,165.22,514.54,166.84,511.89,165.31Z" transform="translate(-229.67 -86.34)"/><path class="cls-99" d="M510.27,254.92l-31-17.92c-2.65-1.53-4.8-5.63-4.8-9.16h0c0-3.53,2.15-5.15,4.8-3.62l31,17.92c2.65,1.53,4.79,5.63,4.79,9.16h0C515.06,254.83,512.92,256.45,510.27,254.92Z" transform="translate(-229.67 -86.34)"/><polygon class="cls-100" points="306.57 131.83 306.57 121.35 284.49 108.77 284 109.64 305.57 121.93 305.57 131.26 303.42 130.01 305.84 136.26 308.27 132.81 306.57 131.83"/><polygon class="cls-100" points="266.12 82.12 268.55 78.67 266.64 77.57 266.64 71.72 265.64 71.42 265.64 77 263.69 75.87 266.12 82.12"/><polygon class="cls-100" points="227.64 91.53 230.07 88.09 228.33 87.08 228.33 77.52 246.12 87.77 246.62 86.91 227.33 75.78 227.33 86.5 225.21 85.28 227.64 91.53"/><polygon class="cls-100" points="303.07 159.99 225.64 115.35 225.64 111.91 224.64 111.61 224.64 115.93 265.64 139.56 265.64 141.79 263.69 140.66 266.12 146.91 268.55 143.47 266.64 142.37 266.64 140.14 303.32 161.28 304.07 161.72 304.07 156.95 303.07 156.65 303.07 159.99"/><polygon class="cls-101" points="266 114.17 246.93 87.42 266 82.69 285.06 109.43 266 114.17"/><polygon class="cls-102" points="285.62 125.77 285.62 126.55 322.79 148.01 322.79 167.22 323.29 167.5 323.29 147.51 285.62 125.77"/><polygon class="cls-103" points="195.69 74.18 195.69 74.96 232.86 96.43 232.86 115.63 233.36 115.91 233.36 95.93 195.69 74.18"/><path class="cls-104" d="M511.89,152.53l-31-17.92c-1.6-.93-3-.69-3.88.41a3,3,0,0,1,3.38.09l31,17.92c2.65,1.53,4.79,5.63,4.79,9.16a5.13,5.13,0,0,1-.91,3.21,4.49,4.49,0,0,0,1.41-3.71C516.68,158.16,514.54,154.06,511.89,152.53Z" transform="translate(-229.67 -86.34)"/><path class="cls-105" d="M510.27,242.14l-31-17.92c-1.6-.93-3-.69-3.88.41a2.94,2.94,0,0,1,3.38.09l31,17.92c2.65,1.53,4.79,5.63,4.79,9.16a5.13,5.13,0,0,1-.91,3.21,4.49,4.49,0,0,0,1.41-3.71C515.06,247.77,512.92,243.67,510.27,242.14Z" transform="translate(-229.67 -86.34)"/><polygon class="cls-106" points="265.5 83.19 284.33 109.61 285.06 109.43 266 82.69 246.93 87.42 247.16 87.74 265.5 83.19"/><g class="cls-4"><polygon class="cls-107" points="215.55 91.42 219.83 93.87 219.83 92.6 215.55 90.15 215.55 91.42"/><polygon class="cls-107" points="217.34 101.78 213.08 99.32 213.08 100.59 217.34 103.04 217.34 101.78"/><polygon class="cls-107" points="217.11 95.04 217.11 93.77 212.35 91.08 212.35 92.34 217.11 95.04"/><polygon class="cls-107" points="212.11 96.08 212.11 97.34 214.53 98.73 214.53 97.47 212.11 96.08"/><polygon class="cls-107" points="208.46 97.96 208.46 96.69 204.53 94.47 204.53 95.74 208.46 97.96"/><polygon class="cls-107" points="219.16 100.14 215.79 98.2 215.79 99.46 219.16 101.41 219.16 100.14"/><polygon class="cls-107" points="214.32 94.79 214.32 96.06 216.32 97.19 216.32 95.93 214.32 94.79"/><polygon class="cls-107" points="221.09 93.33 221.09 94.59 222.18 95.22 222.18 93.96 221.09 93.33"/><polygon class="cls-107" points="213.06 95.33 213.06 94.07 208.99 91.75 208.99 93.02 213.06 95.33"/><polygon class="cls-107" points="218.37 94.5 218.37 95.76 224.37 99.19 224.37 97.93 218.37 94.5"/><polygon class="cls-107" points="210.87 96.62 210.87 95.36 205.76 92.5 205.76 93.76 210.87 96.62"/><polygon class="cls-107" points="206.99 85.25 206.99 86.52 210.99 88.81 210.99 87.54 206.99 85.25"/><polygon class="cls-107" points="214.28 89.43 212.25 88.27 212.25 89.53 214.28 90.69 214.28 89.43"/><polygon class="cls-107" points="211.84 98.6 209.72 97.41 209.72 98.67 211.84 99.87 211.84 98.6"/><polygon class="cls-107" points="223.25 103.77 228.7 106.94 228.7 105.68 223.25 102.51 223.25 103.77"/><polygon class="cls-107" points="203.27 93.76 201.34 92.65 201.34 93.91 203.27 95.02 203.27 93.76"/><polygon class="cls-107" points="197.39 79.94 197.39 81.21 205.97 86.1 205.97 84.83 197.39 79.94"/><polygon class="cls-107" points="224.51 101.87 226.53 103.05 226.53 101.78 224.51 100.61 224.51 101.87"/><polygon class="cls-107" points="225.63 99.92 231.43 103.32 231.43 102.06 225.63 98.65 225.63 99.92"/><polygon class="cls-107" points="217.58 97.91 223.26 101.15 223.26 99.89 217.58 96.65 217.58 97.91"/><polygon class="cls-107" points="223.44 94.68 223.44 95.95 227.97 98.54 227.97 97.27 223.44 94.68"/><polygon class="cls-107" points="204.5 91.79 201.34 90.02 201.34 91.29 204.5 93.05 204.5 91.79"/><polygon class="cls-107" points="222 101.79 220.42 100.87 220.42 102.14 222 103.05 222 101.79"/><polygon class="cls-107" points="207.72 91.03 201.34 87.4 201.34 88.66 207.72 92.3 207.72 91.03"/><polygon class="cls-107" points="211.09 90.35 201.34 84.77 201.34 86.03 211.09 91.62 211.09 90.35"/></g><g class="cls-108"><path class="cls-91" d="M493.85,179.4l-1.52-.88V177l1.52.87Zm0,9.66-1.52-.87v-7.76l1.52.87Z" transform="translate(-229.67 -86.34)"/><path class="cls-91" d="M496,190.33v-6.47l-1-.6V182l1,.6v-.9c0-.86.2-1.4.61-1.63s1-.13,1.71.29a3.7,3.7,0,0,1,.44.29l.51.41-.16,1.26-.27-.21a3.78,3.78,0,0,0-.33-.22c-.33-.19-.58-.22-.74-.1s-.25.38-.25.78v.91l1.38.79v1.29l-1.38-.79v6.47Z" transform="translate(-229.67 -86.34)"/></g><path class="cls-109" d="M584.62,267.15l3.31,1.92v-7.61l-3.31-1.92Zm5.25,3,3.31,1.91v-14l-3.31-1.92Zm5.25-17.27v20.3l3.31,1.91V254.84Z" transform="translate(-229.67 -86.34)"/><path class="cls-109" d="M413.8,105.7a7.26,7.26,0,0,0-.07-.92l1.54-.2a14.63,14.63,0,0,0-.7-2.32l-1.75-.53a12.43,12.43,0,0,0-1.08-1.87l.42-1.76a13.39,13.39,0,0,0-1.68-1.76l-.94,1.21a7.32,7.32,0,0,0-.76-.52c-.27-.15-.52-.26-.77-.37l-.94-2.3a5,5,0,0,0-1.67-.17l.41,2.25a2.4,2.4,0,0,0-1.08.62L403,95.57a4.52,4.52,0,0,0-.69,1.52l1.53,2a5.73,5.73,0,0,0-.07.85,7.26,7.26,0,0,0,.07.92l-1.53.19a13.61,13.61,0,0,0,.69,2.32l1.75.53a12.43,12.43,0,0,0,1.08,1.87l-.41,1.76a13.38,13.38,0,0,0,1.67,1.77L408,108a6.5,6.5,0,0,0,.77.52,5.87,5.87,0,0,0,.76.37l.94,2.3a4.76,4.76,0,0,0,1.68.17l-.42-2.25a2.4,2.4,0,0,0,1.08-.62l1.75,1.49a4.74,4.74,0,0,0,.7-1.52l-1.54-2A5.6,5.6,0,0,0,413.8,105.7Zm-5-.59a4.43,4.43,0,0,1-2-3.48c0-1.28.9-1.79,2-1.15a4.44,4.44,0,0,1,2,3.48C410.79,105.24,409.89,105.75,408.78,105.11Z" transform="translate(-229.67 -86.34)"/><g class="cls-54"><path class="cls-55" d="M388.8,196.34a.53.53,0,0,1-.19-.2.49.49,0,0,1-.09-.28v-1.25a.34.34,0,0,1,.09-.27.58.58,0,0,1,.26-.11l3.4-.65-3.4-4.56a2.86,2.86,0,0,1-.26-.42.79.79,0,0,1-.09-.38V187a.22.22,0,0,1,.08-.2.19.19,0,0,1,.2,0,.91.91,0,0,1,.28.3l4.76,6.46a3.66,3.66,0,0,1,.31.52,1.12,1.12,0,0,1,.09.44v.39a.45.45,0,0,1-.1.33.6.6,0,0,1-.3.14l-4.76,1A.32.32,0,0,1,388.8,196.34Z" transform="translate(-229.67 -86.34)"/><path class="cls-55" d="M386.65,197.33l-.91-.52a.76.76,0,0,1-.29-.27,1.3,1.3,0,0,1-.15-.32l-4.79-15.91a.58.58,0,0,1,0-.19.18.18,0,0,1,.29-.17l.92.53a.86.86,0,0,1,.28.26,1.48,1.48,0,0,1,.16.34L386.9,197a.69.69,0,0,1,0,.2.2.2,0,0,1-.09.19A.17.17,0,0,1,386.65,197.33Z" transform="translate(-229.67 -86.34)"/><path class="cls-55" d="M378.62,190.46a.78.78,0,0,1-.28-.29l-4.75-6.47a2.28,2.28,0,0,1-.31-.5,1,1,0,0,1-.1-.44v-.39a.5.5,0,0,1,.09-.33.51.51,0,0,1,.32-.16l4.75-1a.31.31,0,0,1,.28,0,.63.63,0,0,1,.28.5v1.23c0,.14,0,.24-.09.28a.57.57,0,0,1-.26.12l-3.39.64,3.39,4.57a2.1,2.1,0,0,1,.26.42.74.74,0,0,1,.09.36v1.25a.19.19,0,0,1-.09.19A.2.2,0,0,1,378.62,190.46Z" transform="translate(-229.67 -86.34)"/></g><polygon class="cls-109" points="130.04 96.57 130.04 84.28 136.68 94.26 130.04 96.57 130.04 96.57"/><polygon class="cls-110" points="121.01 91.4 121.01 79.11 127.64 89.09 121.01 91.4 121.01 91.4"/><polygon class="cls-111" points="111.97 86.23 111.97 73.94 118.61 83.92 111.97 86.23 111.97 86.23"/><polygon class="cls-112" points="102.93 81.07 102.93 68.77 109.57 78.75 102.93 81.07 102.93 81.07"/><polygon class="cls-113" points="93.89 75.9 93.89 63.6 100.53 73.58 93.89 75.9 93.89 75.9"/><polygon class="cls-109" points="320.37 23.32 320.37 35.61 313.73 25.64 320.37 23.32 320.37 23.32"/><polygon class="cls-110" points="329.4 28.49 329.4 40.78 322.77 30.8 329.4 28.49 329.4 28.49"/><polygon class="cls-111" points="338.44 33.66 338.44 45.95 331.81 35.97 338.44 33.66 338.44 33.66"/><polygon class="cls-112" points="347.48 38.83 347.48 51.12 340.84 41.14 347.48 38.83 347.48 38.83"/><polygon class="cls-113" points="356.52 44 356.52 56.29 349.88 46.31 356.52 44 356.52 44"/><g class="cls-54"><polygon class="cls-110" points="64.46 225.42 68.93 228 71.09 226.75 66.62 224.17 64.46 225.42"/><polygon class="cls-109" points="67.8 223.49 72.26 226.07 74.66 224.69 70.19 222.11 67.8 223.49"/><polygon class="cls-114" points="57.79 229.27 62.26 231.85 63.94 230.88 59.47 228.3 57.79 229.27"/><polygon class="cls-113" points="55.52 230.59 59.99 233.18 60.86 232.74 56.39 230.16 55.52 230.59"/><polygon class="cls-115" points="61.12 227.34 65.59 229.93 67.52 228.81 63.05 226.23 61.12 227.34"/><polygon class="cls-116" points="67.45 219.18 79.58 226.19 81.87 217.86 67.45 219.18"/></g><polygon class="cls-117" points="375.71 138.3 363.62 121.34 375.71 118.34 387.8 135.3 375.71 138.3"/><path class="cls-118" d="M603.68,181l-21-12.14a7.77,7.77,0,0,1-3.24-6.2h0c0-2.39,1.45-3.49,3.24-2.46l21,12.14a7.8,7.8,0,0,1,3.24,6.21h0C606.92,181,605.47,182.07,603.68,181Z" transform="translate(-229.67 -86.34)"/></g></g></svg>